<svg width="55" height="55" viewBox="0 0 55 55" fill="none" xmlns="http://www.w3.org/2000/svg">
<g filter="url(#filter0_d_512_8028)">
<rect x="15" y="5" width="25" height="25" rx="12.5" fill="#00C7F2"/>
</g>
<path d="M32 16.25C31.8674 16.25 31.7402 16.3027 31.6464 16.3964C31.5527 16.4902 31.5 16.6174 31.5 16.75V20.25C31.5 20.3826 31.4473 20.5098 31.3536 20.6036C31.2598 20.6973 31.1326 20.75 31 20.75H24C23.8674 20.75 23.7402 20.6973 23.6464 20.6036C23.5527 20.5098 23.5 20.3826 23.5 20.25V16.25C23.5 16.1174 23.5527 15.9902 23.6464 15.8964C23.7402 15.8027 23.8674 15.75 24 15.75H25C25.109 15.7557 25.2169 15.7255 25.3072 15.6641C25.3975 15.6027 25.4652 15.5135 25.5 15.41L25.77 14.59C25.8035 14.4907 25.8674 14.4044 25.9527 14.3434C26.0379 14.2824 26.1402 14.2497 26.245 14.25H29C29.1326 14.25 29.2598 14.1973 29.3536 14.1036C29.4473 14.0098 29.5 13.8826 29.5 13.75C29.5 13.6174 29.4473 13.4902 29.3536 13.3964C29.2598 13.3027 29.1326 13.25 29 13.25H26.22C25.9058 13.2506 25.5997 13.3498 25.3449 13.5338C25.0901 13.7177 24.8995 13.9769 24.8 14.275L24.64 14.775H24C23.6022 14.775 23.2206 14.933 22.9393 15.2143C22.658 15.4956 22.5 15.8772 22.5 16.275V20.275C22.5 20.6728 22.658 21.0544 22.9393 21.3357C23.2206 21.617 23.6022 21.775 24 21.775H31C31.3978 21.775 31.7794 21.617 32.0607 21.3357C32.342 21.0544 32.5 20.6728 32.5 20.275V16.775C32.5034 16.7073 32.493 16.6396 32.4694 16.576C32.4458 16.5124 32.4095 16.4543 32.3627 16.4052C32.3159 16.3561 32.2597 16.317 32.1973 16.2903C32.1349 16.2636 32.0678 16.2499 32 16.25ZM27.5 15.75C27.1044 15.75 26.7178 15.8673 26.3889 16.0871C26.06 16.3068 25.8036 16.6192 25.6522 16.9846C25.5009 17.3501 25.4613 17.7522 25.5384 18.1402C25.6156 18.5281 25.8061 18.8845 26.0858 19.1642C26.3655 19.4439 26.7219 19.6344 27.1098 19.7116C27.4978 19.7887 27.8999 19.7491 28.2654 19.5978C28.6308 19.4464 28.9432 19.19 29.1629 18.8611C29.3827 18.5322 29.5 18.1456 29.5 17.75C29.5 17.2196 29.2893 16.7109 28.9142 16.3358C28.5391 15.9607 28.0304 15.75 27.5 15.75ZM27.5 18.75C27.3022 18.75 27.1089 18.6914 26.9444 18.5815C26.78 18.4716 26.6518 18.3154 26.5761 18.1327C26.5004 17.95 26.4806 17.7489 26.5192 17.5549C26.5578 17.3609 26.653 17.1827 26.7929 17.0429C26.9327 16.903 27.1109 16.8078 27.3049 16.7692C27.4989 16.7306 27.7 16.7504 27.8827 16.8261C28.0654 16.9018 28.2216 17.03 28.3315 17.1944C28.4414 17.3589 28.5 17.5522 28.5 17.75C28.5 18.0152 28.3946 18.2696 28.2071 18.4571C28.0196 18.6446 27.7652 18.75 27.5 18.75ZM33 13.25H32.5V12.75C32.5 12.6174 32.4473 12.4902 32.3536 12.3964C32.2598 12.3027 32.1326 12.25 32 12.25C31.8674 12.25 31.7402 12.3027 31.6464 12.3964C31.5527 12.4902 31.5 12.6174 31.5 12.75V13.25H31C30.8674 13.25 30.7402 13.3027 30.6464 13.3964C30.5527 13.4902 30.5 13.6174 30.5 13.75C30.5 13.8826 30.5527 14.0098 30.6464 14.1036C30.7402 14.1973 30.8674 14.25 31 14.25H31.5V14.75C31.5 14.8826 31.5527 15.0098 31.6464 15.1036C31.7402 15.1973 31.8674 15.25 32 15.25C32.1326 15.25 32.2598 15.1973 32.3536 15.1036C32.4473 15.0098 32.5 14.8826 32.5 14.75V14.25H33C33.1326 14.25 33.2598 14.1973 33.3536 14.1036C33.4473 14.0098 33.5 13.8826 33.5 13.75C33.5 13.6174 33.4473 13.4902 33.3536 13.3964C33.2598 13.3027 33.1326 13.25 33 13.25Z" fill="white"/>
<defs>
<filter id="filter0_d_512_8028" x="0" y="0" width="55" height="55" filterUnits="userSpaceOnUse" color-interpolation-filters="sRGB">
<feFlood flood-opacity="0" result="BackgroundImageFix"/>
<feColorMatrix in="SourceAlpha" type="matrix" values="0 0 0 0 0 0 0 0 0 0 0 0 0 0 0 0 0 0 127 0" result="hardAlpha"/>
<feOffset dy="10"/>
<feGaussianBlur stdDeviation="7.5"/>
<feColorMatrix type="matrix" values="0 0 0 0 0 0 0 0 0 0.780392 0 0 0 0 0.94902 0 0 0 0.13 0"/>
<feBlend mode="normal" in2="BackgroundImageFix" result="effect1_dropShadow_512_8028"/>
<feBlend mode="normal" in="SourceGraphic" in2="effect1_dropShadow_512_8028" result="shape"/>
</filter>
</defs>
</svg>
