<svg width="50" height="50" viewBox="0 0 50 50" fill="none" xmlns="http://www.w3.org/2000/svg">
<g clip-path="url(#clip0_4891_543)">
<path d="M35.9258 4.56866C35.9258 2.44979 37.6426 0.732422 39.7607 0.732422H9.91309C8.22852 0.732422 6.86328 2.09811 6.86328 3.78324V38.5204H35.9248V10.3577L35.9258 4.56866Z" fill="#F9FAFC"/>
<path d="M37.4452 0.732422C35.327 0.732422 33.6102 2.44979 33.6102 4.56866V8.40489V10.3587V19.7807C33.6102 20.6756 33.0223 21.4717 32.162 21.715C25.8124 23.5066 21.1581 29.3435 21.1581 36.2686C21.1581 38.0896 21.4803 39.8343 22.0692 41.451H33.6112H35.9266V10.3577V4.56866C35.9266 2.44979 37.6434 0.732422 39.7616 0.732422H37.4452Z" fill="#85DCF2"/>
<path d="M32.4219 41.4503H6.1543C3.16016 41.4503 0.732422 39.0217 0.732422 36.0266V34.6062H32.4219V41.4503Z" fill="#B5F0FF"/>
<path d="M21.1572 36.2679C21.1572 38.0888 21.4795 39.8335 22.0684 41.4503H32.4219V34.6072H21.248C21.1885 35.1523 21.1572 35.7062 21.1572 36.2679Z" fill="#85DCF2"/>
<path d="M36.2725 49.268C43.4495 49.268 49.2676 43.4479 49.2676 36.2685C49.2676 29.0891 43.4495 23.2691 36.2725 23.2691C29.0955 23.2691 23.2773 29.0891 23.2773 36.2685C23.2773 43.4479 29.0955 49.268 36.2725 49.268Z" fill="#3C9BEF"/>
<path d="M36.2723 23.2691C35.9276 23.2691 35.5868 23.2828 35.2489 23.3092C41.9471 23.8318 47.2206 29.4342 47.2206 36.2685C47.2206 43.1028 41.9481 48.7053 35.2489 49.2279C35.5868 49.2543 35.9276 49.268 36.2723 49.268C43.4491 49.268 49.2675 43.4477 49.2675 36.2685C49.2675 29.0894 43.4491 23.2691 36.2723 23.2691Z" fill="#0064BD"/>
<path d="M36.2726 45.9646C41.6261 45.9646 45.966 41.6233 45.966 36.2681C45.966 30.9128 41.6261 26.5715 36.2726 26.5715C30.9191 26.5715 26.5792 30.9128 26.5792 36.2681C26.5792 41.6233 30.9191 45.9646 36.2726 45.9646Z" fill="#F9FAFC"/>
<path d="M36.2725 26.5715C35.8232 26.5715 35.3818 26.6027 34.9482 26.6613C39.6748 27.3071 43.3174 31.3612 43.3174 36.2671C43.3174 41.173 39.6748 45.2271 34.9482 45.8728C35.3809 45.9324 35.8232 45.9627 36.2725 45.9627C41.626 45.9627 45.9658 41.6214 45.9658 36.2661C45.9658 30.9108 41.626 26.5715 36.2725 26.5715Z" fill="#C2F4FF"/>
<path d="M42.9121 10.3577H35.9258V4.56866C35.9258 2.44979 37.6426 0.732422 39.7607 0.732422C41.8789 0.732422 43.5957 2.44979 43.5957 4.56866V9.67582C43.5947 10.0519 43.2891 10.3577 42.9121 10.3577Z" fill="#B5F0FF"/>
<path d="M41.0088 0.941476C40.6172 0.806665 40.1973 0.732422 39.7598 0.732422C37.6416 0.732422 35.9248 2.44979 35.9248 4.56866V10.3587H38.4229V4.56866C38.4238 2.88743 39.5049 1.4602 41.0088 0.941476Z" fill="#85DCF2"/>
<path d="M31.2911 5.8833H12.0792C11.6749 5.8833 11.3468 6.21153 11.3468 6.61597C11.3468 7.0204 11.6749 7.34863 12.0792 7.34863H31.2911C31.6954 7.34863 32.0236 7.0204 32.0236 6.61597C32.0236 6.21153 31.6954 5.8833 31.2911 5.8833Z" fill="#014087"/>
<path d="M31.2911 13.1886H12.0792C11.6749 13.1886 11.3468 13.5168 11.3468 13.9212C11.3468 14.3257 11.6749 14.6539 12.0792 14.6539H31.2911C31.6954 14.6539 32.0236 14.3257 32.0236 13.9212C32.0236 13.5168 31.6954 13.1886 31.2911 13.1886Z" fill="#014087"/>
<path d="M31.2911 20.4949H12.0792C11.6749 20.4949 11.3468 20.8231 11.3468 21.2275C11.3468 21.632 11.6749 21.9602 12.0792 21.9602H31.2911C31.6954 21.9602 32.0236 21.632 32.0236 21.2275C32.0236 20.8231 31.6954 20.4949 31.2911 20.4949Z" fill="#014087"/>
<path d="M36.2726 25.8391C30.5245 25.8391 25.8468 30.5174 25.8468 36.2683C25.8468 42.0192 30.5236 46.6975 36.2726 46.6975C42.0216 46.6975 46.6984 42.0192 46.6984 36.2683C46.6984 30.5174 42.0216 25.8391 36.2726 25.8391ZM36.2726 45.2312C31.3322 45.2312 27.3116 41.2104 27.3116 36.2673C27.3116 31.3252 31.3312 27.3034 36.2726 27.3034C41.214 27.3034 45.2335 31.3243 45.2335 36.2673C45.2335 41.2104 41.214 45.2312 36.2726 45.2312Z" fill="#014087"/>
<path d="M36.2723 30.2881C36.6766 30.2881 37.0048 29.9599 37.0048 29.5554V29.2194C37.0048 28.815 36.6766 28.4867 36.2723 28.4867C35.868 28.4867 35.5399 28.815 35.5399 29.2194V29.5554C35.5399 29.9599 35.868 30.2881 36.2723 30.2881Z" fill="#014087"/>
<path d="M40.7361 30.7661L40.4988 31.0035C40.2126 31.2897 40.2126 31.7538 40.4988 32.04C40.7849 32.3262 41.2478 32.3262 41.5349 32.04L41.7722 31.8026C42.0584 31.5164 42.0584 31.0524 41.7722 30.7661C41.4861 30.4799 41.0222 30.4799 40.7361 30.7661Z" fill="#014087"/>
<path d="M42.25 36.2686C42.25 36.673 42.5781 37.0012 42.9824 37.0012H43.3184C43.7227 37.0012 44.0508 36.673 44.0508 36.2686C44.0508 35.8642 43.7227 35.5359 43.3184 35.5359H42.9824C42.5781 35.5359 42.25 35.8642 42.25 36.2686Z" fill="#014087"/>
<path d="M29.5625 35.5359H29.2266C28.8223 35.5359 28.4941 35.8642 28.4941 36.2686C28.4941 36.673 28.8223 37.0012 29.2266 37.0012H29.5625C29.9668 37.0012 30.2949 36.673 30.2949 36.2686C30.2949 35.8642 29.9668 35.5359 29.5625 35.5359Z" fill="#014087"/>
<path d="M41.5349 40.4959C41.2488 40.2097 40.7849 40.2097 40.4988 40.4959C40.2126 40.7821 40.2126 41.2461 40.4988 41.5324L40.7361 41.7697C41.0222 42.056 41.4861 42.056 41.7722 41.7697C42.0584 41.4835 42.0584 41.0195 41.7722 40.7333L41.5349 40.4959Z" fill="#014087"/>
<path d="M36.2723 42.2473C35.868 42.2473 35.5399 42.5755 35.5399 42.98V43.316C35.5399 43.7204 35.868 44.0487 36.2723 44.0487C36.6766 44.0487 37.0048 43.7204 37.0048 43.316V42.98C37.0048 42.5745 36.6766 42.2473 36.2723 42.2473Z" fill="#014087"/>
<path d="M31.0096 40.4959L30.7723 40.7333C30.4862 41.0195 30.4862 41.4835 30.7723 41.7697C31.0585 42.056 31.5223 42.056 31.8085 41.7697L32.0458 41.5324C32.3319 41.2461 32.3319 40.7821 32.0458 40.4959C31.7596 40.2097 31.2958 40.2097 31.0096 40.4959Z" fill="#014087"/>
<path d="M31.8085 30.7661C31.5223 30.4799 31.0585 30.4799 30.7723 30.7661C30.4862 31.0524 30.4862 31.5164 30.7723 31.8026L31.0096 32.04C31.2958 32.3262 31.7596 32.3262 32.0458 32.04C32.3319 31.7538 32.3319 31.2897 32.0458 31.0035L31.8085 30.7661Z" fill="#014087"/>
<path d="M38.2684 35.535H37.0048V32.4012C37.0048 31.9968 36.6766 31.6685 36.2723 31.6685C35.868 31.6685 35.5399 31.9968 35.5399 32.4012V36.2677C35.5399 36.6721 35.868 37.0004 36.2723 37.0004H38.2684C38.6727 37.0004 39.0009 36.6721 39.0009 36.2677C39.0009 35.8633 38.6737 35.535 38.2684 35.535Z" fill="#014087"/>
<path d="M47.4141 28.2457C47.1777 27.9175 46.7197 27.8432 46.3916 28.0796C46.0635 28.316 45.9893 28.7742 46.2256 29.1024C47.7363 31.1979 48.5352 33.6762 48.5352 36.2679C48.5352 43.0319 43.0342 48.5347 36.2725 48.5347C29.5107 48.5347 24.0098 43.0319 24.0098 36.2679C24.0098 29.5039 29.5107 24.0011 36.2725 24.0011C39.2539 24.0011 42.1279 25.0855 44.3652 27.0529C44.6689 27.3196 45.1318 27.2903 45.3984 26.9865C45.665 26.6827 45.6357 26.2196 45.332 25.953C42.9238 23.8351 39.8564 22.6315 36.6572 22.5426V11.0906H42.9111C43.6914 11.0906 44.3262 10.4556 44.3262 9.67509V4.5689C44.3271 1.9948 42.1953 0 39.835 0H22.6211C22.2168 0 21.8887 0.328234 21.8887 0.732665C21.8887 1.1371 22.2168 1.46533 22.6211 1.46533H36.4121C35.6562 2.28103 35.1924 3.37124 35.1924 4.5689V22.5788C31.2549 22.8865 27.7783 24.8637 25.4717 27.8012H12.0791C11.6748 27.8012 11.3467 28.1295 11.3467 28.5339C11.3467 28.9383 11.6748 29.2666 12.0791 29.2666H24.4678C23.6367 30.6625 23.0469 32.2177 22.7539 33.8745H7.5957V3.78348C7.5957 2.50474 8.63574 1.46533 9.91309 1.46533H19.6934C20.0977 1.46533 20.4258 1.1371 20.4258 0.732665C20.4258 0.328234 20.0977 0 19.6934 0H9.91309C7.82812 0 6.13086 1.69685 6.13086 3.78348V33.8745H0.732422C0.328125 33.8745 0 34.2028 0 34.6072V36.0276C0 39.4223 2.76074 42.1839 6.1543 42.1839H8.5127C8.91699 42.1839 9.24512 41.8557 9.24512 41.4513C9.24512 41.0468 8.91699 40.7186 8.5127 40.7186H6.1543C3.56836 40.7176 1.46484 38.6134 1.46484 36.0276V35.3399H22.5771C22.5566 35.6466 22.5449 35.9563 22.5449 36.2679C22.5449 37.8251 22.8057 39.3217 23.2852 40.7176H11.4414C11.0371 40.7176 10.709 41.0459 10.709 41.4503C10.709 41.8547 11.0371 42.183 11.4414 42.183H23.8857C26.0986 46.8017 30.8193 50 36.2725 50C43.8418 50 50 43.8398 50 36.2679C50 33.3666 49.1055 30.5922 47.4141 28.2457ZM42.8623 4.5689V9.62624H36.6582V4.5689C36.6582 2.85739 38.0498 1.46533 39.7607 1.46533C41.4707 1.46533 42.8623 2.85739 42.8623 4.5689Z" fill="#014087"/>
</g>
<defs>
<clipPath id="clip0_4891_543">
<rect width="50" height="50" fill="white"/>
</clipPath>
</defs>
</svg>
