<svg width="31" height="31" viewBox="0 0 31 31" fill="none" xmlns="http://www.w3.org/2000/svg">
<g clip-path="url(#clip0_4891_8814)">
<path fill-rule="evenodd" clip-rule="evenodd" d="M24.3972 12.9888L19.4214 17.9646L17.427 15.9701L15.0299 13.573L13.0354 11.5786L18.0112 6.60275L20.0057 8.5972L22.4028 10.9943L24.3972 12.9888Z" fill="#F9FAFC"/>
<path fill-rule="evenodd" clip-rule="evenodd" d="M23.6016 12.2343L18.647 17.189L19.422 17.964L24.3978 12.9882L23.6016 12.2343Z" fill="#C2F4FF"/>
<path fill-rule="evenodd" clip-rule="evenodd" d="M29.9876 7.39837L26.7943 10.5917L20.4083 4.20506L23.6016 1.01176C23.9189 0.69388 24.3488 0.515869 24.7975 0.515869C25.2461 0.515869 25.6766 0.694486 25.9933 1.01176L29.987 5.00551C30.3049 5.32278 30.4829 5.75267 30.4829 6.20133C30.4829 6.64999 30.3049 7.08109 29.9876 7.39837Z" fill="#3C9BEF"/>
<path fill-rule="evenodd" clip-rule="evenodd" d="M29.9877 5.00613L25.9939 1.01238C25.4732 0.494089 24.6764 0.372993 24.0255 0.713273C24.1805 0.790774 24.3222 0.89189 24.4463 1.01238L28.4401 5.00613C28.758 5.3234 28.936 5.75329 28.936 6.20195C28.936 6.65062 28.7573 7.08111 28.4401 7.39778L26.0194 9.81607L26.7944 10.5911L29.9877 7.39778C30.3056 7.08051 30.4836 6.65062 30.4836 6.20195C30.4836 5.75329 30.305 5.3228 29.9877 5.00613Z" fill="#3C9BEF"/>
<path fill-rule="evenodd" clip-rule="evenodd" d="M17.9646 19.4214L9.81121 27.5742C9.69193 27.6941 9.54722 27.7861 9.38737 27.843L9.23237 27.3574L7.63572 25.7608L5.23862 23.3637L3.64197 21.767L3.15637 21.612C3.21329 21.4528 3.30532 21.3081 3.42521 21.1882L11.5786 13.0348L13.5731 15.0292L15.9702 17.4263L17.9646 19.4214Z" fill="#F9FAFC"/>
<path fill-rule="evenodd" clip-rule="evenodd" d="M17.4015 18.4344L8.85571 26.9802L9.23293 27.3574L9.38793 27.843C9.54717 27.7861 9.69188 27.6941 9.81177 27.5742L17.9646 19.4214L17.4015 18.4344Z" fill="#C2F4FF"/>
<path fill-rule="evenodd" clip-rule="evenodd" d="M9.38791 27.843L6.0608 29.0055L6.04021 28.9541L2.04646 24.9603L1.995 24.9397L3.15752 21.6126L3.64311 21.7676L5.23977 23.3643L7.63686 25.7614L9.23352 27.358L9.38791 27.843Z" fill="#F9FAFC"/>
<path fill-rule="evenodd" clip-rule="evenodd" d="M6.06021 29.0056L2.0041 30.4212C1.59903 30.5568 1.15158 30.452 0.84945 30.1499C0.547315 29.8478 0.441961 29.4003 0.578195 28.9953L1.99381 24.9391L2.04527 24.9597L6.03902 28.9535L6.06021 29.0056Z" fill="#3C9BEF"/>
<path fill-rule="evenodd" clip-rule="evenodd" d="M26.7943 10.5911L24.3972 12.9882L22.4028 10.9943L20.0057 8.59724L18.0112 6.60279L20.4083 4.20569L26.7943 10.5911Z" fill="#B5F0FF"/>
<path fill-rule="evenodd" clip-rule="evenodd" d="M25.9267 9.90927L23.6222 12.2137L24.3972 12.9887L26.7943 10.5916L25.9267 9.90927Z" fill="#B5F0FF"/>
<path fill-rule="evenodd" clip-rule="evenodd" d="M30.179 30.1783C29.9864 30.3733 29.7242 30.4829 29.4506 30.4829C29.1769 30.4829 28.9141 30.3733 28.7222 30.1783L17.9646 19.4214L15.9702 17.4269L13.5731 15.0298L11.5786 13.0354L0.821026 2.2778C0.418382 1.87515 0.418382 1.22305 0.821026 0.821013C1.22367 0.418974 1.87577 0.418368 2.27781 0.821013L13.0348 11.578L15.0292 13.5724L17.4263 15.9695L19.4208 17.964L30.1778 28.721C30.3733 28.9129 30.4841 29.1751 30.4841 29.4493C30.4847 29.7242 30.3745 29.9864 30.179 30.1783Z" fill="#3C9BEF"/>
<path d="M24.7636 13.3527L27.1582 10.9574L30.3516 7.76408C30.7663 7.34993 30.9988 6.78865 30.9988 6.20254C30.9988 5.61644 30.7657 5.05516 30.3516 4.64101L26.3578 0.647259C25.943 0.23311 25.3818 0 24.7957 0C24.2096 0 23.6483 0.23311 23.2341 0.647259L20.042 3.83935L17.6468 6.23342V6.23645L13.0384 10.8448L2.64476 0.453505C2.03141 -0.131995 1.06627 -0.131995 0.452314 0.453505C-0.152562 1.05899 -0.152562 2.03986 0.452314 2.64534L10.8442 13.0372L3.0583 20.8213C2.88392 20.9969 2.75072 21.2082 2.66777 21.4413L0.0866033 28.83C-0.0714271 29.2944 -0.0114846 29.8054 0.248872 30.2214C0.509229 30.6373 0.943358 30.9134 1.43016 30.974C1.46831 30.9879 1.50827 30.9964 1.54823 31.0006H10.4276C10.7128 31.0006 10.9441 30.7693 10.9441 30.4841C10.9441 30.1989 10.7128 29.9677 10.4276 29.9677H4.87232L9.55693 28.331C9.79004 28.2487 10.002 28.1149 10.1769 27.9405L17.961 20.1546L28.3523 30.5465C28.9589 31.1435 29.9332 31.1399 30.5356 30.538C31.1375 29.9362 31.1417 28.962 30.5447 28.3547L20.1528 17.9622L24.7618 13.3533L24.7636 13.3527ZM22.7667 10.6256L18.7427 6.60095L20.4071 4.93648L26.0623 10.5917L24.3979 12.2561L22.7667 10.6256ZM15.7613 13.5706L20.0063 9.32561L21.6732 10.9925L17.4282 15.2375L15.7613 13.5706ZM23.9655 1.37686C24.43 0.931835 25.1626 0.931835 25.627 1.37686L29.6207 5.37061C29.8411 5.59101 29.9653 5.88951 29.9653 6.20133C29.9653 6.51315 29.8411 6.81166 29.6207 7.03205L26.7925 9.86025L21.1367 4.20506L23.9655 1.37686ZM18.0119 7.33116L19.2755 8.5948L15.0305 12.8392L13.7668 11.5762L18.0119 7.33116ZM12.8386 15.0298L5.23682 22.6329L4.00709 21.4031C3.99377 21.3934 3.98045 21.3844 3.96652 21.3765L11.575 13.768L12.8386 15.0298ZM15.2363 17.4269L7.63513 25.0306L5.96764 23.3631L13.5694 15.7619L15.2363 17.4269ZM3.46034 22.315L8.68382 27.5409L6.21709 28.4025L2.59571 24.7817L3.46034 22.315ZM1.06506 29.166L2.22032 25.8649L5.1345 28.7809L1.83947 29.9313C1.62089 30.0052 1.37991 29.9495 1.21582 29.7872C1.05174 29.625 0.993008 29.3852 1.06506 29.166ZM9.62232 27.0317C9.61445 27.0178 9.60536 27.0038 9.59568 26.9911L8.36594 25.7614L15.9671 18.1602L17.2308 19.4232L9.62232 27.0317ZM29.8145 29.8151C29.6104 30.0113 29.2883 30.0113 29.0837 29.8151L11.951 12.6824L1.18313 1.91453C1.04871 1.78496 0.994824 1.59241 1.04205 1.41198C1.08928 1.23155 1.23036 1.09047 1.41079 1.04324C1.59122 0.996016 1.78377 1.0499 1.91334 1.18432L29.8139 29.0849C30.0161 29.2865 30.0161 29.6135 29.8145 29.8151ZM18.1584 15.9683L22.4034 11.7233L23.667 12.987L19.4226 17.232L18.1584 15.9683Z" fill="#003E83"/>
<path fill-rule="evenodd" clip-rule="evenodd" d="M16.0168 31C16.302 31 16.5333 30.7687 16.5333 30.4835C16.5333 30.1983 16.302 29.967 16.0168 29.967H12.9167C12.6316 29.967 12.4003 30.1983 12.4003 30.4835C12.4003 30.7687 12.6316 31 12.9167 31H16.0168Z" fill="#003E83"/>
</g>
<defs>
<clipPath id="clip0_4891_8814">
<rect width="31" height="31" fill="white"/>
</clipPath>
</defs>
</svg>
