<svg width="26" height="27" viewBox="0 0 26 27" fill="none" xmlns="http://www.w3.org/2000/svg">
<g clip-path="url(#clip0_82_212)">
<path d="M12.4853 22.2365H2.20597C1.2124 22.2365 0.407227 21.4544 0.407227 20.4894V18.7418H14.2129L12.4853 22.2365Z" fill="#B5F0FF"/>
<path d="M23.7952 8.25817V15.5988V20.4894H2.20597C1.2124 20.4894 0.407227 19.7073 0.407227 18.7423V8.25817L13.0006 3.89018L23.7952 8.25817Z" fill="#F9FAFC"/>
<path d="M3.57142 11.7529H2.64138C2.4014 11.7529 2.20703 11.5641 2.20703 11.3311V10.4277C2.20703 10.1946 2.4014 10.0058 2.64138 10.0058H3.57142C3.8114 10.0058 4.00577 10.1946 4.00577 10.4277V11.3311C4.00577 11.5641 3.8114 11.7529 3.57142 11.7529Z" fill="#3C58A0"/>
<path d="M7.16945 11.7529H6.2394C5.99942 11.7529 5.80505 11.5641 5.80505 11.3311V10.4277C5.80505 10.1946 5.99942 10.0058 6.2394 10.0058H7.16945C7.40942 10.0058 7.60379 10.1946 7.60379 10.4277V11.3311C7.60379 11.5641 7.40888 11.7529 7.16945 11.7529Z" fill="#3C58A0"/>
<path d="M10.7669 11.7529H9.83681C9.59684 11.7529 9.40247 11.5641 9.40247 11.3311V10.4277C9.40247 10.1946 9.59684 10.0058 9.83681 10.0058H10.7669C11.0068 10.0058 11.2012 10.1946 11.2012 10.4277V11.3311C11.2012 11.5641 11.0068 11.7529 10.7669 11.7529Z" fill="#3C58A0"/>
<path d="M14.365 11.7529H13.435C13.195 11.7529 13.0006 11.5641 13.0006 11.3311V10.4277C13.0006 10.1946 13.195 10.0058 13.435 10.0058H14.365C14.605 10.0058 14.7994 10.1946 14.7994 10.4277V11.3311C14.7994 11.5641 14.605 11.7529 14.365 11.7529Z" fill="#3C58A0"/>
<path d="M17.9619 11.7529H17.0319C16.7919 11.7529 16.5975 11.5641 16.5975 11.3311V10.4277C16.5975 10.1946 16.7919 10.0058 17.0319 10.0058H17.9619C18.2019 10.0058 18.3963 10.1946 18.3963 10.4277V11.3311C18.3963 11.5641 18.2019 11.7529 17.9619 11.7529Z" fill="#3C58A0"/>
<path d="M21.56 11.7529H20.6299C20.3899 11.7529 20.1956 11.5641 20.1956 11.3311V10.4277C20.1956 10.1946 20.3899 10.0058 20.6299 10.0058H21.56C21.7999 10.0058 21.9943 10.1946 21.9943 10.4277V11.3311C21.9943 11.5641 21.7999 11.7529 21.56 11.7529Z" fill="#3C58A0"/>
<path d="M3.57142 15.2471H2.64138C2.4014 15.2471 2.20703 15.0583 2.20703 14.8252V13.9219C2.20703 13.6888 2.4014 13.5 2.64138 13.5H3.57142C3.8114 13.5 4.00577 13.6888 4.00577 13.9219V14.8252C4.00577 15.0583 3.8114 15.2471 3.57142 15.2471Z" fill="#3C58A0"/>
<path d="M7.16945 15.2471H6.2394C5.99942 15.2471 5.80505 15.0583 5.80505 14.8252V13.9219C5.80505 13.6888 5.99942 13.5 6.2394 13.5H7.16945C7.40942 13.5 7.60379 13.6888 7.60379 13.9219V14.8252C7.60379 15.0583 7.40888 15.2471 7.16945 15.2471Z" fill="#3C58A0"/>
<path d="M10.7669 15.2471H9.83681C9.59684 15.2471 9.40247 15.0583 9.40247 14.8252V13.9219C9.40247 13.6888 9.59684 13.5 9.83681 13.5H10.7669C11.0068 13.5 11.2012 13.6888 11.2012 13.9219V14.8252C11.2012 15.0583 11.0068 15.2471 10.7669 15.2471Z" fill="#3C58A0"/>
<path d="M14.7994 15.2471V13.9366C14.7994 13.6951 14.5979 13.5 14.3498 13.5H13.4502C13.2015 13.5 13.0006 13.6956 13.0006 13.9366V14.8104C13.0006 15.052 13.202 15.2471 13.4502 15.2471H14.7994Z" fill="#3C58A0"/>
<path d="M3.57142 18.7418H2.64138C2.4014 18.7418 2.20703 18.553 2.20703 18.3199V17.4166C2.20703 17.1835 2.4014 16.9947 2.64138 16.9947H3.57142C3.8114 16.9947 4.00577 17.1835 4.00577 17.4166V18.3199C4.00577 18.553 3.8114 18.7418 3.57142 18.7418Z" fill="#3C58A0"/>
<path d="M7.16945 18.7418H6.2394C5.99942 18.7418 5.80505 18.553 5.80505 18.3199V17.4166C5.80505 17.1835 5.99942 16.9947 6.2394 16.9947H7.16945C7.40942 16.9947 7.60379 17.1835 7.60379 17.4166V18.3199C7.60379 18.553 7.40888 18.7418 7.16945 18.7418Z" fill="#3C58A0"/>
<path d="M10.7669 18.7418H9.83681C9.59684 18.7418 9.40247 18.553 9.40247 18.3199V17.4166C9.40247 17.1835 9.59684 16.9947 9.83681 16.9947H10.7669C11.0068 16.9947 11.2012 17.1835 11.2012 17.4166V18.3199C11.2012 18.553 11.0068 18.7418 10.7669 18.7418Z" fill="#3C58A0"/>
<path d="M21.5599 10.0053H20.6299C20.5734 10.0053 20.5202 10.0159 20.4708 10.0348C20.6315 10.0965 20.7461 10.2489 20.7461 10.4272V11.3305C20.7461 11.5088 20.6321 11.6612 20.4708 11.7229C20.5202 11.7419 20.574 11.7524 20.6299 11.7524H21.5599C21.7999 11.7524 21.9943 11.5636 21.9943 11.3305V10.4272C21.9943 10.1946 21.7999 10.0053 21.5599 10.0053Z" fill="white"/>
<path d="M17.9619 10.0053H17.0319C16.9754 10.0053 16.9222 10.0159 16.8728 10.0348C17.0335 10.0965 17.1481 10.2489 17.1481 10.4272V11.3305C17.1481 11.5088 17.0341 11.6612 16.8728 11.7229C16.9222 11.7419 16.976 11.7524 17.0319 11.7524H17.9619C18.2019 11.7524 18.3963 11.5636 18.3963 11.3305V10.4272C18.3963 10.1946 18.2019 10.0053 17.9619 10.0053Z" fill="white"/>
<path d="M14.365 10.0053H13.435C13.3785 10.0053 13.3253 10.0159 13.2759 10.0348C13.4366 10.0965 13.5511 10.2489 13.5511 10.4272V11.3305C13.5511 11.5088 13.4371 11.6612 13.2759 11.7229C13.3253 11.7419 13.379 11.7524 13.435 11.7524H14.365C14.605 11.7524 14.7993 11.5636 14.7993 11.3305V10.4272C14.7993 10.1946 14.605 10.0053 14.365 10.0053Z" fill="white"/>
<path d="M10.767 10.0053H9.83694C9.78047 10.0053 9.72726 10.0159 9.67786 10.0348C9.83856 10.0965 9.95312 10.2489 9.95312 10.4272V11.3305C9.95312 11.5088 9.83911 11.6612 9.67786 11.7229C9.72726 11.7419 9.78101 11.7524 9.83694 11.7524H10.767C11.007 11.7524 11.2013 11.5636 11.2013 11.3305V10.4272C11.2013 10.1946 11.007 10.0053 10.767 10.0053Z" fill="white"/>
<path d="M7.16945 10.0053H6.2394C6.18294 10.0053 6.12973 10.0159 6.08032 10.0348C6.24103 10.0965 6.35559 10.2489 6.35559 10.4272V11.3305C6.35559 11.5088 6.24157 11.6612 6.08032 11.7229C6.12973 11.7419 6.18348 11.7524 6.2394 11.7524H7.16945C7.40942 11.7524 7.6038 11.5636 7.6038 11.3305V10.4272C7.6038 10.1946 7.40888 10.0053 7.16945 10.0053Z" fill="white"/>
<path d="M3.57142 10.0053H2.64138C2.58491 10.0053 2.53171 10.0159 2.4823 10.0348C2.64301 10.0965 2.75757 10.2489 2.75757 10.4272V11.3305C2.75757 11.5088 2.64355 11.6612 2.4823 11.7229C2.53171 11.7419 2.58546 11.7524 2.64138 11.7524H3.57142C3.8114 11.7524 4.00577 11.5636 4.00577 11.3305V10.4272C4.00577 10.1946 3.8114 10.0053 3.57142 10.0053Z" fill="white"/>
<path d="M3.57142 13.5H2.64138C2.58491 13.5 2.53171 13.5105 2.4823 13.5295C2.64301 13.5912 2.75757 13.7436 2.75757 13.9219V14.8252C2.75757 15.0035 2.64355 15.1559 2.4823 15.2176C2.53171 15.2365 2.58546 15.2471 2.64138 15.2471H3.57142C3.8114 15.2471 4.00577 15.0583 4.00577 14.8252V13.9219C4.00577 13.6888 3.8114 13.5 3.57142 13.5Z" fill="white"/>
<path d="M3.57142 16.9947H2.64138C2.58491 16.9947 2.53171 17.0052 2.4823 17.0242C2.64301 17.0859 2.75757 17.2383 2.75757 17.4165V18.3199C2.75757 18.4981 2.64355 18.6505 2.4823 18.7122C2.53171 18.7312 2.58546 18.7418 2.64138 18.7418H3.57142C3.8114 18.7418 4.00577 18.553 4.00577 18.3199V17.4165C4.00577 17.1835 3.8114 16.9947 3.57142 16.9947Z" fill="white"/>
<path d="M7.16945 13.5H6.2394C6.18294 13.5 6.12973 13.5105 6.08032 13.5295C6.24103 13.5912 6.35559 13.7436 6.35559 13.9219V14.8252C6.35559 15.0035 6.24157 15.1559 6.08032 15.2176C6.12973 15.2365 6.18348 15.2471 6.2394 15.2471H7.16945C7.40942 15.2471 7.6038 15.0583 7.6038 14.8252V13.9219C7.6038 13.6888 7.40888 13.5 7.16945 13.5Z" fill="white"/>
<path d="M7.16945 16.9947H6.2394C6.18294 16.9947 6.12973 17.0052 6.08032 17.0242C6.24103 17.0859 6.35559 17.2383 6.35559 17.4165V18.3199C6.35559 18.4981 6.24157 18.6505 6.08032 18.7122C6.12973 18.7312 6.18348 18.7418 6.2394 18.7418H7.16945C7.40942 18.7418 7.6038 18.553 7.6038 18.3199V17.4165C7.6038 17.1835 7.40888 16.9947 7.16945 16.9947Z" fill="white"/>
<path d="M10.767 13.5H9.83694C9.78047 13.5 9.72726 13.5105 9.67786 13.5295C9.83856 13.5912 9.95312 13.7436 9.95312 13.9219V14.8252C9.95312 15.0035 9.83911 15.1559 9.67786 15.2176C9.72726 15.2365 9.78101 15.2471 9.83694 15.2471H10.767C11.007 15.2471 11.2013 15.0583 11.2013 14.8252V13.9219C11.2013 13.6888 11.007 13.5 10.767 13.5Z" fill="white"/>
<path d="M14.7993 15.2471V13.9219C14.7993 13.6888 14.605 13.5 14.365 13.5H13.435C13.3785 13.5 13.3253 13.5105 13.2759 13.5295C13.4366 13.5912 13.5511 13.7436 13.5511 13.9219V14.8252C13.5511 15.0035 13.4371 15.1559 13.2759 15.2176C13.3253 15.2365 13.379 15.2471 13.435 15.2471H14.7993Z" fill="white"/>
<path d="M10.767 16.9947H9.83694C9.78047 16.9947 9.72726 17.0052 9.67786 17.0242C9.83856 17.0859 9.95312 17.2383 9.95312 17.4165V18.3199C9.95312 18.4981 9.83911 18.6505 9.67786 18.7122C9.72726 18.7312 9.78101 18.7418 9.83694 18.7418H10.767C11.007 18.7418 11.2013 18.553 11.2013 18.3199V17.4165C11.2013 17.1835 11.007 16.9947 10.767 16.9947Z" fill="white"/>
<path d="M22.5453 7.75246V15.5988V20.4894H23.7951V15.5988V8.25818L22.5453 7.75246Z" fill="#B5F0FF"/>
<path d="M23.7952 8.25819V3.8902C23.7952 2.92516 22.99 2.14311 21.9964 2.14311H2.20597C1.2124 2.14311 0.407227 2.92516 0.407227 3.8902V8.25819H23.7952Z" fill="#B5F0FF"/>
<path d="M8.05278 3.67137C8.05278 4.27465 7.54948 4.7635 6.92837 4.7635C6.30725 4.7635 5.80396 4.27465 5.80396 3.67137V1.48764C5.80396 0.884355 6.30725 0.395508 6.92837 0.395508C7.54948 0.395508 8.05278 0.884355 8.05278 1.48764V3.67137Z" fill="#F9FAFC"/>
<path d="M18.3974 3.67137C18.3974 4.27465 17.8941 4.7635 17.273 4.7635C16.6519 4.7635 16.1486 4.27465 16.1486 3.67137V1.48764C16.1486 0.884355 16.6519 0.395508 17.273 0.395508C17.8941 0.395508 18.3974 0.884355 18.3974 1.48764V3.67137Z" fill="#F9FAFC"/>
<path d="M17.2729 0.395508C17.0421 0.395508 16.8277 0.463008 16.649 0.579023C16.9509 0.774668 17.1496 1.10848 17.1496 1.48764V3.67189C17.1496 4.05053 16.9509 4.38434 16.649 4.58051C16.8277 4.69652 17.0421 4.76402 17.2729 4.76402C17.894 4.76402 18.3973 4.27518 18.3973 3.67189V1.48764C18.3973 0.884356 17.8935 0.395508 17.2729 0.395508Z" fill="#B5F0FF"/>
<path d="M6.9284 0.395508C6.69765 0.395508 6.48319 0.463008 6.30457 0.579023C6.60644 0.774668 6.80515 1.10848 6.80515 1.48764V3.67189C6.80515 4.05053 6.60644 4.38434 6.30457 4.58051C6.48319 4.69652 6.69765 4.76402 6.9284 4.76402C7.54951 4.76402 8.05281 4.27518 8.05281 3.67189V1.48764C8.05281 0.884356 7.54951 0.395508 6.9284 0.395508Z" fill="#B5F0FF"/>
<path d="M21.9959 2.14258H20.7466C21.7402 2.14258 22.5453 2.92463 22.5453 3.88967V8.25818H23.7946V3.8902C23.7952 2.92516 22.9894 2.14258 21.9959 2.14258Z" fill="#2086E0"/>
<path d="M18.8469 26.6045C22.5726 26.6045 25.5928 23.671 25.5928 20.0522C25.5928 16.4335 22.5726 13.5 18.8469 13.5C15.1212 13.5 12.101 16.4335 12.101 20.0522C12.101 23.671 15.1212 26.6045 18.8469 26.6045Z" fill="#4FABF7"/>
<path d="M18.8469 24.8574C21.5791 24.8574 23.7941 22.7061 23.7941 20.0523C23.7941 17.3985 21.5791 15.2471 18.8469 15.2471C16.1146 15.2471 13.8997 17.3985 13.8997 20.0523C13.8997 22.7061 16.1146 24.8574 18.8469 24.8574Z" fill="#F9FAFC"/>
<path d="M18.8469 13.5C18.6362 13.5 18.4283 13.51 18.2225 13.5285C21.6555 13.8343 24.3441 16.6382 24.3441 20.0522C24.3441 23.4663 21.6555 26.2702 18.2225 26.576C18.4283 26.5945 18.6362 26.6045 18.8469 26.6045C22.5725 26.6045 25.5929 23.6709 25.5929 20.0522C25.5929 16.4336 22.5731 13.5 18.8469 13.5Z" fill="#1886EA"/>
<path d="M18.8469 15.2471C18.6357 15.2471 18.4272 15.2603 18.223 15.2851C20.6608 15.583 22.5459 17.6038 22.5459 20.0523C22.5459 22.5007 20.6603 24.5215 18.223 24.8195C18.4272 24.8442 18.6357 24.8574 18.8469 24.8574C21.5789 24.8574 23.7941 22.7064 23.7941 20.0523C23.7941 17.3982 21.5794 15.2471 18.8469 15.2471Z" fill="#B5F0FF"/>
<path d="M18.8469 20.9261C19.3438 20.9261 19.7465 20.5348 19.7465 20.0522C19.7465 19.5697 19.3438 19.1784 18.8469 19.1784C18.35 19.1784 17.9473 19.5697 17.9473 20.0522C17.9473 20.5348 18.35 20.9261 18.8469 20.9261Z" fill="#B5F0FF"/>
<path d="M2.64086 12.1484H3.57091C4.03512 12.1484 4.41246 11.7819 4.41246 11.3311V10.4277C4.41246 9.97684 4.03512 9.61034 3.57091 9.61034H2.64086C2.17666 9.61034 1.79932 9.97684 1.79932 10.4277V11.3311C1.79932 11.7814 2.1772 12.1484 2.64086 12.1484ZM2.61372 10.4272C2.61372 10.4124 2.62566 10.4008 2.64086 10.4008H3.57091C3.58557 10.4008 3.59805 10.4124 3.59805 10.4272V11.3305C3.59805 11.3453 3.58557 11.3569 3.57091 11.3569H2.64086C2.62566 11.3569 2.61372 11.3453 2.61372 11.3305V10.4272Z" fill="#014087"/>
<path d="M6.23889 12.1484H7.16893C7.63314 12.1484 8.01048 11.7819 8.01048 11.3311V10.4277C8.01048 9.97684 7.63314 9.61034 7.16893 9.61034H6.23889C5.77468 9.61034 5.39734 9.97684 5.39734 10.4277V11.3311C5.39734 11.7814 5.77522 12.1484 6.23889 12.1484ZM6.21174 10.4272C6.21174 10.4124 6.22423 10.4008 6.23889 10.4008H7.16893C7.18359 10.4008 7.19608 10.4124 7.19608 10.4272V11.3305C7.19608 11.3453 7.18359 11.3569 7.16893 11.3569H6.23889C6.22423 11.3569 6.21174 11.3453 6.21174 11.3305V10.4272Z" fill="#014087"/>
<path d="M9.83691 12.1484H10.767C11.2312 12.1484 11.6085 11.7819 11.6085 11.3311V10.4277C11.6085 9.97684 11.2312 9.61034 10.767 9.61034H9.83691C9.3727 9.61034 8.99536 9.97684 8.99536 10.4277V11.3311C8.99536 11.7814 9.3727 12.1484 9.83691 12.1484ZM9.80976 10.4272C9.80976 10.4124 9.82225 10.4008 9.83691 10.4008H10.767C10.7816 10.4008 10.7941 10.4124 10.7941 10.4272V11.3305C10.7941 11.3453 10.7816 11.3569 10.767 11.3569H9.83691C9.82225 11.3569 9.80976 11.3453 9.80976 11.3305V10.4272Z" fill="#014087"/>
<path d="M14.365 12.1484C14.8292 12.1484 15.2065 11.7819 15.2065 11.3311V10.4277C15.2065 9.97684 14.8292 9.61034 14.365 9.61034H13.4349C12.9707 9.61034 12.5934 9.97684 12.5934 10.4277V11.3311C12.5934 11.7819 12.9707 12.1484 13.4349 12.1484H14.365ZM13.4078 11.3311V10.4277C13.4078 10.413 13.4203 10.4014 13.4349 10.4014H14.365C14.3796 10.4014 14.3921 10.413 14.3921 10.4277V11.3311C14.3921 11.3458 14.3796 11.3574 14.365 11.3574H13.4349C13.4197 11.3574 13.4078 11.3453 13.4078 11.3311Z" fill="#014087"/>
<path d="M17.9619 12.1484C18.4261 12.1484 18.8034 11.7819 18.8034 11.3311V10.4277C18.8034 9.97684 18.4261 9.61034 17.9619 9.61034H17.0319C16.5676 9.61034 16.1903 9.97684 16.1903 10.4277V11.3311C16.1903 11.7819 16.5676 12.1484 17.0319 12.1484H17.9619ZM17.0047 11.3311V10.4277C17.0047 10.413 17.0172 10.4014 17.0319 10.4014H17.9619C17.9766 10.4014 17.989 10.413 17.989 10.4277V11.3311C17.989 11.3458 17.9766 11.3574 17.9619 11.3574H17.0319C17.0172 11.3574 17.0047 11.3453 17.0047 11.3311Z" fill="#014087"/>
<path d="M21.5599 12.1484C22.0241 12.1484 22.4015 11.7819 22.4015 11.3311V10.4277C22.4015 9.97684 22.0241 9.61034 21.5599 9.61034H20.6299C20.1657 9.61034 19.7883 9.97684 19.7883 10.4277V11.3311C19.7883 11.7819 20.1657 12.1484 20.6299 12.1484H21.5599ZM20.6027 11.3311V10.4277C20.6027 10.413 20.6152 10.4014 20.6299 10.4014H21.5599C21.5746 10.4014 21.5871 10.413 21.5871 10.4277V11.3311C21.5871 11.3458 21.5746 11.3574 21.5599 11.3574H20.6299C20.6147 11.3574 20.6027 11.3453 20.6027 11.3311Z" fill="#014087"/>
<path d="M1.79932 14.8252C1.79932 15.2761 2.17666 15.6426 2.64086 15.6426H3.57091C4.03512 15.6426 4.41246 15.2761 4.41246 14.8252V13.9219C4.41246 13.471 4.03512 13.1045 3.57091 13.1045H2.64086C2.17666 13.1045 1.79932 13.471 1.79932 13.9219V14.8252ZM2.61372 13.9219C2.61372 13.9071 2.62566 13.8955 2.64086 13.8955H3.57091C3.58611 13.8955 3.59805 13.9071 3.59805 13.9219V14.8252C3.59805 14.84 3.58611 14.8516 3.57091 14.8516H2.64086C2.62566 14.8516 2.61372 14.84 2.61372 14.8252V13.9219Z" fill="#014087"/>
<path d="M5.39734 14.8252C5.39734 15.2761 5.77468 15.6426 6.23889 15.6426H7.16893C7.63314 15.6426 8.01048 15.2761 8.01048 14.8252V13.9219C8.01048 13.471 7.63314 13.1045 7.16893 13.1045H6.23889C5.77468 13.1045 5.39734 13.471 5.39734 13.9219V14.8252ZM6.21174 13.9219C6.21174 13.9071 6.22423 13.8955 6.23889 13.8955H7.16893C7.18359 13.8955 7.19608 13.9071 7.19608 13.9219V14.8252C7.19608 14.84 7.18359 14.8516 7.16893 14.8516H6.23889C6.22423 14.8516 6.21174 14.84 6.21174 14.8252V13.9219Z" fill="#014087"/>
<path d="M8.99536 14.8252C8.99536 15.2761 9.3727 15.6426 9.83691 15.6426H10.767C11.2312 15.6426 11.6085 15.2761 11.6085 14.8252V13.9219C11.6085 13.471 11.2312 13.1045 10.767 13.1045H9.83691C9.3727 13.1045 8.99536 13.471 8.99536 13.9219V14.8252ZM9.80976 13.9219C9.80976 13.9071 9.82225 13.8955 9.83691 13.8955H10.767C10.7816 13.8955 10.7941 13.9071 10.7941 13.9219V14.8252C10.7941 14.84 10.7816 14.8516 10.767 14.8516H9.83691C9.82225 14.8516 9.80976 14.84 9.80976 14.8252V13.9219Z" fill="#014087"/>
<path d="M1.79932 18.3199C1.79932 18.7708 2.17666 19.1373 2.64086 19.1373H3.57091C4.03512 19.1373 4.41246 18.7708 4.41246 18.3199V17.4166C4.41246 16.9657 4.03512 16.5992 3.57091 16.5992H2.64086C2.17666 16.5992 1.79932 16.9657 1.79932 17.4166V18.3199ZM2.61372 17.4166C2.61372 17.4018 2.62566 17.3902 2.64086 17.3902H3.57091C3.58611 17.3902 3.59805 17.4018 3.59805 17.4166V18.3199C3.59805 18.3347 3.58611 18.3463 3.57091 18.3463H2.64086C2.62566 18.3463 2.61372 18.3347 2.61372 18.3199V17.4166Z" fill="#014087"/>
<path d="M5.39734 18.3199C5.39734 18.7708 5.77468 19.1373 6.23889 19.1373H7.16893C7.63314 19.1373 8.01048 18.7708 8.01048 18.3199V17.4166C8.01048 16.9657 7.63314 16.5992 7.16893 16.5992H6.23889C5.77468 16.5992 5.39734 16.9657 5.39734 17.4166V18.3199ZM6.21174 17.4166C6.21174 17.4018 6.22423 17.3902 6.23889 17.3902H7.16893C7.18359 17.3902 7.19608 17.4018 7.19608 17.4166V18.3199C7.19608 18.3347 7.18359 18.3463 7.16893 18.3463H6.23889C6.22423 18.3463 6.21174 18.3347 6.21174 18.3199V17.4166Z" fill="#014087"/>
<path d="M8.99536 18.3199C8.99536 18.7708 9.3727 19.1373 9.83691 19.1373H10.767C11.2312 19.1373 11.6085 18.7708 11.6085 18.3199V17.4166C11.6085 16.9657 11.2312 16.5992 10.767 16.5992H9.83691C9.3727 16.5992 8.99536 16.9657 8.99536 17.4166V18.3199ZM9.80976 17.4166C9.80976 17.4018 9.82225 17.3902 9.83691 17.3902H10.767C10.7816 17.3902 10.7941 17.4018 10.7941 17.4166V18.3199C10.7941 18.3347 10.7816 18.3463 10.767 18.3463H9.83691C9.82225 18.3463 9.80976 18.3347 9.80976 18.3199V17.4166Z" fill="#014087"/>
<path d="M24.2023 15.4517V3.89021C24.2023 2.70896 23.2126 1.74762 21.9964 1.74762H18.8045V1.48816C18.804 0.66709 18.1171 0 17.2729 0C16.4286 0 15.7413 0.66709 15.7413 1.48764V1.74709H8.45999V1.48764C8.45999 0.66709 7.77264 0 6.92837 0C6.08357 0 5.39676 0.66709 5.39676 1.48764V1.74709H2.20594C0.989768 1.74709 0 2.70844 0 3.88969V10.0881C0 10.3064 0.182426 10.4836 0.4072 10.4836C0.631975 10.4836 0.8144 10.3064 0.8144 10.0881V8.65371H23.3879V14.6876C22.1517 13.6988 20.5696 13.1045 18.8474 13.1045C17.5188 13.1045 16.2739 13.4583 15.2065 14.0743V13.9372C15.2065 13.4784 14.8221 13.105 14.3497 13.105H13.4501C12.9777 13.105 12.5933 13.4784 12.5933 13.9372V14.811C12.5933 15.2307 12.9148 15.5777 13.3312 15.6342C12.3088 16.836 11.6942 18.3758 11.6942 20.0528C11.6942 20.0665 11.6948 20.0802 11.6948 20.0939H2.20594C1.43877 20.0934 0.8144 19.4869 0.8144 18.7418V11.6701C0.8144 11.4518 0.631975 11.2746 0.4072 11.2746C0.182426 11.2746 0 11.4518 0 11.6701V20.4889C0 21.6701 0.989768 22.6315 2.20594 22.6315H3.19136C3.41614 22.6315 3.59856 22.4543 3.59856 22.236C3.59856 22.0177 3.41614 21.8405 3.19136 21.8405H2.20594C1.43877 21.8405 0.8144 21.234 0.8144 20.4889V20.4024C1.19445 20.703 1.67875 20.8839 2.20594 20.8839H11.7453C11.7855 21.2103 11.849 21.5293 11.9348 21.8399H4.82016C4.59539 21.8399 4.41296 22.0171 4.41296 22.2354C4.41296 22.4538 4.59539 22.631 4.82016 22.631H12.2051C13.2617 25.1886 15.8406 26.9989 18.8469 26.9989C22.7913 26.9989 26 23.8823 26 20.0512C26 18.2893 25.3202 16.6778 24.2023 15.4517ZM16.5557 1.48764C16.5557 1.10373 16.8771 0.791016 17.2729 0.791016C17.6687 0.791016 17.9901 1.1032 17.9901 1.48764V3.67189C17.9901 4.0558 17.6687 4.36852 17.2729 4.36852C16.8771 4.36852 16.5557 4.0558 16.5557 3.67189V1.48764ZM6.21116 1.48764C6.21116 1.10373 6.53312 0.791016 6.92837 0.791016C7.32363 0.791016 7.64559 1.1032 7.64559 1.48764V3.67189C7.64559 4.0558 7.32363 4.36852 6.92837 4.36852C6.53312 4.36852 6.21116 4.0558 6.21116 3.67189V1.48764ZM2.20594 2.53811H5.39676V3.49418H4.90432C4.67954 3.49418 4.49712 3.67137 4.49712 3.88969C4.49712 4.10801 4.67954 4.2852 4.90432 4.2852H5.53358C5.77464 4.79988 6.30889 5.159 6.92783 5.159C7.54678 5.159 8.08102 4.79988 8.32208 4.2852H8.95134C9.17612 4.2852 9.35854 4.10801 9.35854 3.88969C9.35854 3.67137 9.17612 3.49418 8.95134 3.49418H8.4589V2.53811H15.7402V3.49418H15.2477C15.023 3.49418 14.8405 3.67137 14.8405 3.88969C14.8405 4.10801 15.023 4.2852 15.2477 4.2852H15.877C16.1181 4.79988 16.6523 5.159 17.2713 5.159C17.8902 5.159 18.4244 4.79988 18.6655 4.2852H19.2948C19.5195 4.2852 19.702 4.10801 19.702 3.88969C19.702 3.67137 19.5195 3.49418 19.2948 3.49418H18.8023V2.53811H21.9942C22.7614 2.53811 23.3858 3.14455 23.3858 3.88969V6.11508H0.8144V3.88969C0.8144 3.14455 1.43877 2.53811 2.20594 2.53811ZM0.8144 7.8627V6.90662H23.3879V7.8627H0.8144ZM13.4077 13.9366C13.4077 13.914 13.4267 13.8955 13.4501 13.8955H14.3497C14.3731 13.8955 14.3921 13.914 14.3921 13.9366V14.6206C14.296 14.6955 14.2015 14.7725 14.1092 14.8516H13.4501C13.4267 14.8516 13.4077 14.8331 13.4077 14.8104V13.9366ZM18.8469 26.209C15.3514 26.209 12.5081 23.4473 12.5081 20.0522C12.5081 16.6572 15.352 13.8955 18.8469 13.8955C22.3417 13.8955 25.1856 16.6572 25.1856 20.0522C25.1856 23.4473 22.3423 26.209 18.8469 26.209Z" fill="#014087"/>
<path d="M18.8468 14.8516C15.8944 14.8516 13.4924 17.1846 13.4924 20.0523C13.4924 22.92 15.8944 25.2529 18.8468 25.2529C21.7993 25.2529 24.2013 22.92 24.2013 20.0523C24.2013 17.1846 21.7993 14.8516 18.8468 14.8516ZM18.8468 24.4619C16.3434 24.4619 14.3068 22.4839 14.3068 20.0523C14.3068 17.6207 16.3434 15.6426 18.8468 15.6426C21.3503 15.6426 23.3869 17.6207 23.3869 20.0523C23.3869 22.4839 21.3503 24.4619 18.8468 24.4619Z" fill="#014087"/>
<path d="M21.0957 19.6567H20.0885C19.9593 19.2744 19.6477 18.9722 19.2546 18.8467V16.9947C19.2546 16.7764 19.0721 16.5992 18.8474 16.5992C18.6226 16.5992 18.4402 16.7764 18.4402 16.9947V18.8467C17.9184 19.0133 17.5405 19.4906 17.5405 20.0522C17.5405 20.752 18.1269 21.3215 18.8474 21.3215C19.4256 21.3215 19.9169 20.9545 20.0885 20.4477H21.0957C21.3204 20.4477 21.5029 20.2705 21.5029 20.0522C21.5029 19.8339 21.3204 19.6567 21.0957 19.6567ZM18.8468 20.5305C18.5754 20.5305 18.3544 20.3159 18.3544 20.0522C18.3544 19.7885 18.5754 19.5739 18.8468 19.5739C19.1183 19.5739 19.3393 19.7885 19.3393 20.0522C19.3393 20.3159 19.1183 20.5305 18.8468 20.5305Z" fill="#014087"/>
</g>
<defs>
<clipPath id="clip0_82_212">
<rect width="26" height="27" fill="white"/>
</clipPath>
</defs>
</svg>
