<svg width="42" height="42" viewBox="0 0 42 42" fill="none" xmlns="http://www.w3.org/2000/svg">
<rect y="0.66156" width="42" height="40.7077" rx="20.3538" fill="#3C9BEF"/>
<path d="M15.5834 20.2076C15.5834 20.4219 15.6712 20.6273 15.8274 20.7788C15.9837 20.9302 16.1957 21.0153 16.4167 21.0153C16.6377 21.0153 16.8497 20.9302 17.006 20.7788C17.1622 20.6273 17.25 20.4219 17.25 20.2076V15.6926L18.325 16.7426C18.4025 16.8184 18.4947 16.8784 18.5962 16.9194C18.6978 16.9604 18.8067 16.9816 18.9167 16.9816C19.0267 16.9816 19.1356 16.9604 19.2372 16.9194C19.3387 16.8784 19.4309 16.8184 19.5084 16.7426C19.5865 16.6676 19.6485 16.5782 19.6908 16.4798C19.7331 16.3814 19.7549 16.2758 19.7549 16.1692C19.7549 16.0626 19.7331 15.957 19.6908 15.8586C19.6485 15.7601 19.5865 15.6708 19.5084 15.5957L17.0084 13.1726C16.9291 13.0991 16.8357 13.0415 16.7334 13.003C16.5305 12.9222 16.3029 12.9222 16.1 13.003C15.9977 13.0415 15.9043 13.0991 15.825 13.1726L13.325 15.5957C13.1681 15.7478 13.08 15.9541 13.08 16.1692C13.08 16.3843 13.1681 16.5906 13.325 16.7426C13.482 16.8947 13.6948 16.9802 13.9167 16.9802C14.1386 16.9802 14.3514 16.8947 14.5084 16.7426L15.5834 15.6926V20.2076ZM26.4167 16.1692H22.25C22.029 16.1692 21.8171 16.2543 21.6608 16.4058C21.5045 16.5572 21.4167 16.7627 21.4167 16.9769C21.4167 17.1911 21.5045 17.3965 21.6608 17.548C21.8171 17.6995 22.029 17.7846 22.25 17.7846H26.4167C26.6377 17.7846 26.8497 17.8697 27.006 18.0211C27.1622 18.1726 27.25 18.378 27.25 18.5923V26.443L25.9417 25.2719C25.788 25.1324 25.5856 25.0545 25.375 25.0538H18.0834C17.8624 25.0538 17.6504 24.9687 17.4941 24.8172C17.3378 24.6658 17.25 24.4603 17.25 24.2461V23.4384C17.25 23.2242 17.1622 23.0188 17.006 22.8673C16.8497 22.7158 16.6377 22.6307 16.4167 22.6307C16.1957 22.6307 15.9837 22.7158 15.8274 22.8673C15.6712 23.0188 15.5834 23.2242 15.5834 23.4384V24.2461C15.5834 24.8887 15.8468 25.5051 16.3156 25.9595C16.7844 26.4139 17.4203 26.6692 18.0834 26.6692H25.05L27.55 28.8742C27.7037 29.0136 27.9062 29.0916 28.1167 29.0923C28.231 29.0911 28.344 29.0691 28.45 29.0276C28.5991 28.9646 28.7259 28.8606 28.8147 28.7286C28.9036 28.5966 28.9506 28.4422 28.95 28.2846V18.5923C28.9501 18.2713 28.8843 17.9536 28.7566 17.6575C28.6289 17.3614 28.4417 17.0928 28.2061 16.8674C27.9704 16.6419 27.6908 16.4641 27.3836 16.3443C27.0765 16.2244 26.7478 16.1649 26.4167 16.1692V16.1692Z" fill="white"/>
</svg>
