<svg width="80" height="75" viewBox="0 0 80 75" fill="none" xmlns="http://www.w3.org/2000/svg">
<g filter="url(#filter0_d_66_3338)">
<rect x="15" y="5" width="50" height="50" rx="25" fill="#3C9BEF"/>
</g>
<path d="M34.5835 29.1667C34.5835 29.3878 34.6713 29.5997 34.8276 29.756C34.9838 29.9123 35.1958 30.0001 35.4168 30.0001C35.6378 30.0001 35.8498 29.9123 36.0061 29.756C36.1624 29.5997 36.2502 29.3878 36.2502 29.1667V24.5084L37.3252 25.5917C37.4026 25.6699 37.4948 25.7318 37.5963 25.7742C37.6979 25.8165 37.8068 25.8382 37.9168 25.8382C38.0268 25.8382 38.1358 25.8165 38.2373 25.7742C38.3389 25.7318 38.431 25.6699 38.5085 25.5917C38.5866 25.5143 38.6486 25.4221 38.6909 25.3206C38.7332 25.219 38.755 25.1101 38.755 25.0001C38.755 24.8901 38.7332 24.7811 38.6909 24.6796C38.6486 24.578 38.5866 24.4859 38.5085 24.4084L36.0085 21.9084C35.9292 21.8325 35.8358 21.7731 35.7335 21.7334C35.5306 21.6501 35.303 21.6501 35.1002 21.7334C34.9979 21.7731 34.9044 21.8325 34.8252 21.9084L32.3252 24.4084C32.1682 24.5653 32.0801 24.7782 32.0801 25.0001C32.0801 25.222 32.1682 25.4348 32.3252 25.5917C32.4821 25.7487 32.6949 25.8368 32.9168 25.8368C33.1387 25.8368 33.3516 25.7487 33.5085 25.5917L34.5835 24.5084V29.1667ZM45.4168 25.0001H41.2502C41.0291 25.0001 40.8172 25.0879 40.6609 25.2442C40.5046 25.4004 40.4168 25.6124 40.4168 25.8334C40.4168 26.0544 40.5046 26.2664 40.6609 26.4227C40.8172 26.5789 41.0291 26.6667 41.2502 26.6667H45.4168C45.6378 26.6667 45.8498 26.7545 46.0061 26.9108C46.1624 27.0671 46.2502 27.2791 46.2502 27.5001V35.6001L44.9418 34.3917C44.7881 34.2479 44.5857 34.1675 44.3752 34.1667H37.0835C36.8625 34.1667 36.6505 34.0789 36.4942 33.9227C36.338 33.7664 36.2502 33.5544 36.2502 33.3334V32.5001C36.2502 32.2791 36.1624 32.0671 36.0061 31.9108C35.8498 31.7545 35.6378 31.6667 35.4168 31.6667C35.1958 31.6667 34.9838 31.7545 34.8276 31.9108C34.6713 32.0671 34.5835 32.2791 34.5835 32.5001V33.3334C34.5835 33.9965 34.8469 34.6323 35.3157 35.1012C35.7846 35.57 36.4204 35.8334 37.0835 35.8334H44.0502L46.5502 38.1084C46.7038 38.2523 46.9063 38.3327 47.1168 38.3334C47.2311 38.3322 47.3442 38.3096 47.4502 38.2667C47.5992 38.2017 47.726 38.0944 47.8148 37.9582C47.9037 37.822 47.9507 37.6627 47.9502 37.5001V27.5001C47.9502 27.1689 47.8844 26.8411 47.7567 26.5356C47.629 26.2301 47.4419 25.953 47.2062 25.7204C46.9705 25.4878 46.6909 25.3044 46.3838 25.1807C46.0766 25.0571 45.7479 24.9957 45.4168 25.0001Z" fill="white"/>
<defs>
<filter id="filter0_d_66_3338" x="0" y="0" width="80" height="80" filterUnits="userSpaceOnUse" color-interpolation-filters="sRGB">
<feFlood flood-opacity="0" result="BackgroundImageFix"/>
<feColorMatrix in="SourceAlpha" type="matrix" values="0 0 0 0 0 0 0 0 0 0 0 0 0 0 0 0 0 0 127 0" result="hardAlpha"/>
<feOffset dy="10"/>
<feGaussianBlur stdDeviation="7.5"/>
<feColorMatrix type="matrix" values="0 0 0 0 0.101961 0 0 0 0 0.811765 0 0 0 0 0.952941 0 0 0 0.2 0"/>
<feBlend mode="normal" in2="BackgroundImageFix" result="effect1_dropShadow_66_3338"/>
<feBlend mode="normal" in="SourceGraphic" in2="effect1_dropShadow_66_3338" result="shape"/>
</filter>
</defs>
</svg>
