<svg width="50" height="50" viewBox="0 0 50 50" fill="none" xmlns="http://www.w3.org/2000/svg">
<g clip-path="url(#clip0_4891_899)">
<path d="M45.5356 5.99631H4.34574C2.28527 5.99631 0.61438 7.65784 0.61438 9.70676V13.0152L3.91407 17.8431H46.7817L49.266 13.0152V9.70676C49.267 7.65784 47.5961 5.99631 45.5356 5.99631Z" fill="#3C9BEF"/>
<path d="M5.01723 5.99631H4.34574C2.28527 5.99631 0.61438 7.65784 0.61438 9.70676V13.0152L3.91407 17.8431H5.01625V5.99631H5.01723Z" fill="#3C9BEF"/>
<path d="M49.267 13.0145V42.5599C49.267 44.6089 47.5961 46.2704 45.5356 46.2704H4.34574C2.28527 46.2704 0.61438 44.6089 0.61438 42.5599V13.0145H49.267Z" fill="#F9FAFC"/>
<path d="M8.61451 10.5078C10.2042 10.5078 11.4972 9.22203 11.4972 7.64129V5.99631H5.73181V7.64129C5.73181 9.22203 7.02487 10.5078 8.61451 10.5078Z" fill="#3C9BEF"/>
<path d="M8.61439 9.05068C7.83131 9.05068 7.19702 8.41995 7.19702 7.64126V4.35129C7.19702 3.5726 7.83131 2.94186 8.61439 2.94186C9.39747 2.94186 10.0318 3.5726 10.0318 4.35129V7.64126C10.0318 8.41995 9.39747 9.05068 8.61439 9.05068Z" fill="#F9FAFC"/>
<path d="M15.1405 10.5078C16.7302 10.5078 18.0232 9.22203 18.0232 7.64129V5.99631H12.2578V7.64129C12.2588 9.22203 13.5518 10.5078 15.1405 10.5078Z" fill="#3C9BEF"/>
<path d="M15.1405 9.05068C14.3574 9.05068 13.7231 8.41995 13.7231 7.64126V4.35129C13.7231 3.5726 14.3574 2.94186 15.1405 2.94186C15.9236 2.94186 16.5579 3.5726 16.5579 4.35129V7.64126C16.5579 8.41995 15.9236 9.05068 15.1405 9.05068Z" fill="#F9FAFC"/>
<path d="M21.6674 10.5078C23.257 10.5078 24.5501 9.22203 24.5501 7.64129V5.99631H18.7847V7.64129C18.7847 9.22203 20.0777 10.5078 21.6674 10.5078Z" fill="#3C9BEF"/>
<path d="M21.6675 9.05068C20.8844 9.05068 20.2501 8.41995 20.2501 7.64126V4.35129C20.2501 3.5726 20.8844 2.94186 21.6675 2.94186C22.4506 2.94186 23.0849 3.5726 23.0849 4.35129V7.64126C23.0839 8.41995 22.4496 9.05068 21.6675 9.05068Z" fill="#F9FAFC"/>
<path d="M28.1936 10.5078C29.7833 10.5078 31.0763 9.22203 31.0763 7.64129V5.99631H25.3109V7.64129C25.3109 9.22203 26.604 10.5078 28.1936 10.5078Z" fill="#3C9BEF"/>
<path d="M28.1931 9.05068C27.4101 9.05068 26.7758 8.41995 26.7758 7.64126V4.35129C26.7758 3.5726 27.4101 2.94186 28.1931 2.94186C28.9762 2.94186 29.6105 3.5726 29.6105 4.35129V7.64126C29.6105 8.41995 28.9762 9.05068 28.1931 9.05068Z" fill="#F9FAFC"/>
<path d="M34.7205 10.5078C36.3101 10.5078 37.6032 9.22203 37.6032 7.64129V5.99631H31.8378V7.64129C31.8378 9.22203 33.1308 10.5078 34.7205 10.5078Z" fill="#3C9BEF"/>
<path d="M34.7203 9.05068C33.9373 9.05068 33.303 8.41995 33.303 7.64126V4.35129C33.303 3.5726 33.9373 2.94186 34.7203 2.94186C35.5034 2.94186 36.1377 3.5726 36.1377 4.35129V7.64126C36.1367 8.41995 35.5024 9.05068 34.7203 9.05068Z" fill="#F9FAFC"/>
<path d="M41.2462 10.5078C42.8359 10.5078 44.1289 9.22203 44.1289 7.64129V5.99631H38.3635V7.64129C38.3635 9.22203 39.6566 10.5078 41.2462 10.5078Z" fill="#3C9BEF"/>
<path d="M41.2462 9.05068C40.4631 9.05068 39.8289 8.41995 39.8289 7.64126V4.35129C39.8289 3.5726 40.4631 2.94186 41.2462 2.94186C42.0293 2.94186 42.6636 3.5726 42.6636 4.35129V7.64126C42.6636 8.41995 42.0293 9.05068 41.2462 9.05068Z" fill="#F9FAFC"/>
<path d="M43.2256 21.0348H6.65585C6.02743 21.0348 5.51746 20.5277 5.51746 19.9028V17.3088C5.51746 16.6839 6.02743 16.1768 6.65585 16.1768H43.2256C43.854 16.1768 44.364 16.6839 44.364 17.3088V19.9028C44.364 20.5287 43.854 21.0348 43.2256 21.0348Z" fill="#85DCF2"/>
<path d="M10.6182 42.485C7.52503 42.485 5.01723 39.9912 5.01723 36.9154V13.0145H0.61438V42.5599C0.61438 44.6089 2.28527 46.2704 4.34574 46.2704H45.5356C47.5961 46.2704 49.267 44.6089 49.267 42.5599V42.484L10.6182 42.485Z" fill="#B5F0FF"/>
<path d="M49.2659 25.9349C48.8606 25.9349 48.5327 26.261 48.5327 26.6639V42.5609C48.5327 44.2049 47.1878 45.5423 45.5345 45.5423H36.2952C35.8899 45.5423 35.562 45.8684 35.562 46.2713C35.562 46.6743 35.8899 47.0004 36.2952 47.0004H45.5345C47.9953 47.0004 49.998 45.0089 49.998 42.5619V26.6639C49.999 26.261 49.6711 25.9349 49.2659 25.9349Z" fill="#014087"/>
<path d="M45.5355 5.268H43.3957V4.35207C43.3957 3.17235 42.4316 2.21359 41.2462 2.21359C40.0608 2.21359 39.0966 3.17235 39.0966 4.3511V5.26703H36.8698V4.3511C36.8698 3.17235 35.9056 2.21359 34.7202 2.21359C33.5348 2.21359 32.5707 3.17235 32.5707 4.3511V5.26703H30.3438V4.3511C30.3438 3.17235 29.3786 2.21359 28.1933 2.21359C27.0079 2.21359 26.0437 3.17235 26.0437 4.3511V5.26703H23.8168V4.3511C23.8168 3.17235 22.8527 2.21359 21.6673 2.21359C20.4819 2.21359 19.5177 3.17235 19.5177 4.3511V5.26703H17.2909V4.3511C17.2909 3.17235 16.3257 2.21359 15.1413 2.21359C13.9559 2.21359 12.9918 3.17235 12.9918 4.3511V5.26703H10.7649V4.3511C10.7639 3.17235 9.79975 2.21359 8.61437 2.21359C7.42899 2.21359 6.46482 3.17235 6.46482 4.3511V5.26703H4.34562C1.8848 5.268 -0.11792 7.25853 -0.11792 9.70653V42.5604C-0.11792 45.0075 1.8848 46.9989 4.34562 46.9989H33.1697C33.575 46.9989 33.9029 46.6729 33.9029 46.2699C33.9029 45.8669 33.575 45.5409 33.1697 45.5409H4.34562C2.69235 45.5409 1.34741 44.2034 1.34741 42.5594V13.7431H48.5337V23.5234C48.5337 23.9264 48.8616 24.2525 49.2668 24.2525C49.6721 24.2525 50 23.9264 50 23.5234V9.70653C49.999 7.25853 47.9963 5.268 45.5355 5.268ZM40.562 4.3511C40.562 3.97635 40.8693 3.67072 41.2462 3.67072C41.623 3.67072 41.9304 3.97635 41.9304 4.3511V7.64106C41.9304 8.0158 41.623 8.32144 41.2462 8.32144C40.8693 8.32144 40.562 8.0158 40.562 7.64106V4.3511ZM34.036 4.3511C34.036 3.97635 34.3433 3.67072 34.7202 3.67072C35.0971 3.67072 35.4044 3.97635 35.4044 4.3511V7.64106C35.4044 8.0158 35.0971 8.32144 34.7202 8.32144C34.3433 8.32144 34.036 8.0158 34.036 7.64106V4.3511ZM27.509 4.3511C27.509 3.97635 27.8164 3.67072 28.1933 3.67072C28.5701 3.67072 28.8775 3.97635 28.8775 4.3511V7.64106C28.8775 8.0158 28.5701 8.32144 28.1933 8.32144C27.8164 8.32144 27.509 8.0158 27.509 7.64106V4.3511ZM20.9831 4.3511C20.9831 3.97635 21.2904 3.67072 21.6673 3.67072C22.0441 3.67072 22.3515 3.97635 22.3515 4.3511V5.9951V5.99608V5.99705V7.64106C22.3515 8.0158 22.0441 8.32144 21.6673 8.32144C21.2904 8.32144 20.9831 8.0158 20.9831 7.64106V4.3511ZM14.4561 4.3511C14.4561 3.97635 14.7635 3.67072 15.1403 3.67072C15.5172 3.67072 15.8246 3.97635 15.8246 4.3511V7.64106C15.8246 8.0158 15.5172 8.32144 15.1403 8.32144C14.7635 8.32144 14.4561 8.0158 14.4561 7.64106V4.3511ZM7.93016 4.3511C7.93016 3.97635 8.23751 3.67072 8.61437 3.67072C8.99123 3.67072 9.29858 3.97635 9.29858 4.3511V5.9951V5.99608V5.99705V7.64106C9.29858 8.0158 8.99123 8.32144 8.61437 8.32144C8.23751 8.32144 7.93016 8.0158 7.93016 7.64106V4.3511ZM1.34741 12.285V9.70556C1.34741 8.06155 2.69235 6.72415 4.34562 6.72415H6.46482V7.64009C6.46482 8.81883 7.42899 9.77759 8.61437 9.77759C9.79975 9.77759 10.7639 8.81883 10.7639 7.64009V6.72415H12.9908V7.64009C12.9908 8.81883 13.955 9.77759 15.1403 9.77759C16.3257 9.77759 17.2899 8.81883 17.2899 7.64009V6.72415H19.5168V7.64009C19.5168 8.81883 20.4809 9.77759 21.6663 9.77759C22.8517 9.77759 23.8159 8.81883 23.8159 7.64009V6.72415H26.0427V7.64009C26.0427 8.81883 27.0069 9.77759 28.1923 9.77759C29.3777 9.77759 30.3418 8.81883 30.3418 7.64009V6.72415H32.5687V7.64009C32.5687 8.81883 33.5329 9.77759 34.7183 9.77759C35.9036 9.77759 36.8678 8.81883 36.8678 7.64009V6.72415H39.0947V7.64009C39.0947 8.81883 40.0588 9.77759 41.2442 9.77759C42.4296 9.77759 43.3938 8.81883 43.3938 7.64009V6.72415H45.5335C47.1868 6.72415 48.5317 8.06155 48.5317 9.70556V12.285H1.34741Z" fill="#014087"/>
<path d="M45.096 19.9033V17.3093C45.096 16.2834 44.2562 15.4482 43.2245 15.4482H14.7479C14.3436 15.4482 14.0147 15.7743 14.0147 16.1773C14.0147 16.5803 14.3426 16.9063 14.7479 16.9063H43.2254C43.4496 16.9063 43.6307 17.0874 43.6307 17.3093V19.9033C43.6307 20.1252 43.4486 20.3063 43.2254 20.3063H6.65573C6.43158 20.3063 6.25049 20.1252 6.25049 19.9033V17.3093C6.25049 17.0874 6.43256 16.9063 6.65573 16.9063H11.6214C12.0257 16.9063 12.3546 16.5803 12.3546 16.1773C12.3546 15.7743 12.0267 15.4482 11.6214 15.4482H6.65573C5.62403 15.4482 4.78418 16.2824 4.78418 17.3093V19.9033C4.78418 20.9292 5.62403 21.7644 6.65573 21.7644H43.2254C44.2571 21.7634 45.096 20.9292 45.096 19.9033Z" fill="#014087"/>
<path d="M27.729 25.3069C27.729 24.4805 27.0526 23.8089 26.2225 23.8089H23.6599C22.8288 23.8089 22.1534 24.4815 22.1534 25.3069V27.2049C22.1534 28.0313 22.8298 28.7029 23.6599 28.7029H26.2225C27.0535 28.7029 27.729 28.0303 27.729 27.2049V25.3069ZM26.2626 27.2049C26.2626 27.2273 26.244 27.2458 26.2215 27.2458H23.6589C23.6364 27.2458 23.6178 27.2273 23.6178 27.2049V25.3069C23.6178 25.2845 23.6364 25.266 23.6589 25.266H26.2215C26.244 25.266 26.2626 25.2845 26.2626 25.3069V27.2049Z" fill="#014087"/>
<path d="M20.465 25.3069C20.465 24.4805 19.7887 23.8089 18.9586 23.8089H16.395C15.564 23.8089 14.8885 24.4815 14.8885 25.3069V27.2049C14.8885 28.0313 15.5649 28.7029 16.395 28.7029H18.9576C19.7887 28.7029 20.4641 28.0303 20.4641 27.2049V25.3069H20.465ZM18.9987 27.2049C18.9987 27.2273 18.9801 27.2458 18.9576 27.2458H16.395C16.3725 27.2458 16.3539 27.2273 16.3539 27.2049V25.3069C16.3539 25.2845 16.3725 25.266 16.395 25.266H18.9576C18.9801 25.266 18.9987 25.2845 18.9987 25.3069V27.2049Z" fill="#014087"/>
<path d="M13.2012 25.3073C13.2012 24.4809 12.5249 23.8093 11.6948 23.8093H9.1312C8.30016 23.8093 7.62476 24.4819 7.62476 25.3073V27.2054C7.62476 28.0318 8.30114 28.7034 9.1312 28.7034H11.6938C12.5249 28.7034 13.2003 28.0308 13.2003 27.2054V25.3073H13.2012ZM11.7349 27.2054C11.7349 27.2278 11.7163 27.2463 11.6938 27.2463H9.1312C9.10869 27.2463 9.09009 27.2278 9.09009 27.2054V25.3073C9.09009 25.2849 9.10869 25.2664 9.1312 25.2664H11.6938C11.7163 25.2664 11.7349 25.2849 11.7349 25.3073V27.2054Z" fill="#014087"/>
<path d="M33.4857 23.8089H30.9231C30.092 23.8089 29.4166 24.4815 29.4166 25.3069V27.2049C29.4166 28.0313 30.093 28.7029 30.9231 28.7029H33.4857C34.3167 28.7029 34.9921 28.0303 34.9921 27.2049V25.3069C34.9921 24.4805 34.3167 23.8089 33.4857 23.8089ZM33.5268 27.2049C33.5268 27.2273 33.5082 27.2458 33.4857 27.2458H30.9231C30.9006 27.2458 30.882 27.2273 30.882 27.2049V25.3069C30.882 25.2845 30.9006 25.266 30.9231 25.266H33.4857C33.5082 25.266 33.5268 25.2845 33.5268 25.3069V27.2049Z" fill="#014087"/>
<path d="M42.2564 25.3069C42.2564 24.4805 41.58 23.8089 40.75 23.8089H38.1873C37.3563 23.8089 36.6809 24.4815 36.6809 25.3069V27.2049C36.6809 28.0313 37.3573 28.7029 38.1873 28.7029H40.75C41.581 28.7029 42.2564 28.0303 42.2564 27.2049V25.3069ZM40.7911 27.2049C40.7911 27.2273 40.7725 27.2458 40.75 27.2458H38.1873C38.1648 27.2458 38.1462 27.2273 38.1462 27.2049V25.3069C38.1462 25.2845 38.1648 25.266 38.1873 25.266H40.75C40.7725 25.266 40.7911 25.2845 40.7911 25.3069V27.2049Z" fill="#014087"/>
<path d="M27.729 31.9569C27.729 31.1305 27.0526 30.4589 26.2225 30.4589H23.6599C22.8288 30.4589 22.1534 31.1315 22.1534 31.9569V33.855C22.1534 34.6813 22.8298 35.353 23.6599 35.353H26.2225C27.0535 35.353 27.729 34.6804 27.729 33.855V31.9569ZM26.2626 33.855C26.2626 33.8773 26.244 33.8958 26.2215 33.8958H23.6589C23.6364 33.8958 23.6178 33.8773 23.6178 33.855V31.9569C23.6178 31.9345 23.6364 31.916 23.6589 31.916H26.2215C26.244 31.916 26.2626 31.9345 26.2626 31.9569V33.855Z" fill="#014087"/>
<path d="M20.465 31.9569C20.465 31.1305 19.7887 30.4589 18.9586 30.4589H16.395C15.564 30.4589 14.8885 31.1315 14.8885 31.9569V33.855C14.8885 34.6813 15.5649 35.353 16.395 35.353H18.9576C19.7887 35.353 20.4641 34.6804 20.4641 33.855V31.9569H20.465ZM18.9987 33.855C18.9987 33.8773 18.9801 33.8958 18.9576 33.8958H16.395C16.3725 33.8958 16.3539 33.8773 16.3539 33.855V31.9569C16.3539 31.9345 16.3725 31.916 16.395 31.916H18.9576C18.9801 31.916 18.9987 31.9345 18.9987 31.9569V33.855Z" fill="#014087"/>
<path d="M13.2012 31.9569C13.2012 31.1305 12.5249 30.4589 11.6948 30.4589H9.1312C8.30016 30.4589 7.62476 31.1315 7.62476 31.9569V33.855C7.62476 34.6813 8.30114 35.353 9.1312 35.353H11.6938C12.5249 35.353 13.2003 34.6804 13.2003 33.855V31.9569H13.2012ZM11.7349 33.855C11.7349 33.8773 11.7163 33.8958 11.6938 33.8958H9.1312C9.10869 33.8958 9.09009 33.8773 9.09009 33.855V31.9569C9.09009 31.9345 9.10869 31.916 9.1312 31.916H11.6938C11.7163 31.916 11.7349 31.9345 11.7349 31.9569V33.855Z" fill="#014087"/>
<path d="M33.4857 30.4579H30.9231C30.092 30.4579 29.4166 31.1304 29.4166 31.9559V33.8539C29.4166 34.6803 30.093 35.3519 30.9231 35.3519H33.4857C34.3167 35.3519 34.9921 34.6793 34.9921 33.8539V31.9559C34.9921 31.1304 34.3167 30.4579 33.4857 30.4579ZM33.5268 33.8549C33.5268 33.8773 33.5082 33.8958 33.4857 33.8958H30.9231C30.9006 33.8958 30.882 33.8773 30.882 33.8549V31.9568C30.882 31.9344 30.9006 31.916 30.9231 31.916H33.4857C33.5082 31.916 33.5268 31.9344 33.5268 31.9568V33.8549Z" fill="#014087"/>
<path d="M42.2564 31.9569C42.2564 31.1305 41.58 30.4589 40.75 30.4589H38.1873C37.3563 30.4589 36.6809 31.1315 36.6809 31.9569V33.855C36.6809 34.6813 37.3573 35.353 38.1873 35.353H40.75C41.581 35.353 42.2564 34.6804 42.2564 33.855V31.9569ZM40.7911 33.855C40.7911 33.8773 40.7725 33.8958 40.75 33.8958H38.1873C38.1648 33.8958 38.1462 33.8773 38.1462 33.855V31.9569C38.1462 31.9345 38.1648 31.916 38.1873 31.916H40.75C40.7725 31.916 40.7911 31.9345 40.7911 31.9569V33.855Z" fill="#014087"/>
<path d="M26.222 37.1079H23.6594C22.8284 37.1079 22.153 37.7805 22.153 38.6059V40.5039C22.153 41.3303 22.8293 42.0019 23.6594 42.0019H26.222C27.0531 42.0019 27.7285 41.3293 27.7285 40.5039V38.6059C27.7294 37.7805 27.0531 37.1079 26.222 37.1079ZM26.2631 40.5049C26.2631 40.5273 26.2445 40.5458 26.222 40.5458H23.6594C23.6369 40.5458 23.6183 40.5273 23.6183 40.5049V38.6069C23.6183 38.5845 23.6369 38.566 23.6594 38.566H26.222C26.2445 38.566 26.2631 38.5845 26.2631 38.6069V40.5049Z" fill="#014087"/>
<path d="M18.9576 37.1079H16.395C15.564 37.1079 14.8885 37.7805 14.8885 38.6059V40.5039C14.8885 41.3303 15.5649 42.0019 16.395 42.0019H18.9576C19.7887 42.0019 20.4641 41.3293 20.4641 40.5039V38.6059C20.465 37.7805 19.7887 37.1079 18.9576 37.1079ZM18.9987 40.5049C18.9987 40.5273 18.9801 40.5458 18.9576 40.5458H16.395C16.3725 40.5458 16.3539 40.5273 16.3539 40.5049V38.6069C16.3539 38.5845 16.3725 38.566 16.395 38.566H18.9576C18.9801 38.566 18.9987 38.5845 18.9987 38.6069V40.5049Z" fill="#014087"/>
<path d="M11.6938 37.1079H9.1312C8.30016 37.1079 7.62476 37.7805 7.62476 38.6059V40.5039C7.62476 41.3303 8.30114 42.0019 9.1312 42.0019H11.6938C12.5249 42.0019 13.2003 41.3293 13.2003 40.5039V38.6059C13.2012 37.7805 12.5249 37.1079 11.6938 37.1079ZM11.7349 40.5049C11.7349 40.5273 11.7163 40.5458 11.6938 40.5458H9.1312C9.10869 40.5458 9.09009 40.5273 9.09009 40.5049V38.6069C9.09009 38.5845 9.10869 38.566 9.1312 38.566H11.6938C11.7163 38.566 11.7349 38.5845 11.7349 38.6069V40.5049Z" fill="#014087"/>
<path d="M33.4857 37.1079H30.9231C30.092 37.1079 29.4166 37.7805 29.4166 38.6059V40.5039C29.4166 41.3303 30.093 42.0019 30.9231 42.0019H33.4857C34.3167 42.0019 34.9921 41.3293 34.9921 40.5039V38.6059C34.9921 37.7805 34.3167 37.1079 33.4857 37.1079ZM33.5268 40.5049C33.5268 40.5273 33.5082 40.5458 33.4857 40.5458H30.9231C30.9006 40.5458 30.882 40.5273 30.882 40.5049V38.6069C30.882 38.5845 30.9006 38.566 30.9231 38.566H33.4857C33.5082 38.566 33.5268 38.5845 33.5268 38.6069V40.5049Z" fill="#014087"/>
<path d="M40.75 37.1079H38.1873C37.3563 37.1079 36.6809 37.7805 36.6809 38.6059V40.5039C36.6809 41.3303 37.3573 42.0019 38.1873 42.0019H40.75C41.581 42.0019 42.2564 41.3293 42.2564 40.5039V38.6059C42.2564 37.7805 41.581 37.1079 40.75 37.1079ZM40.7911 40.5049C40.7911 40.5273 40.7725 40.5458 40.75 40.5458H38.1873C38.1648 40.5458 38.1462 40.5273 38.1462 40.5049V38.6069C38.1462 38.5845 38.1648 38.566 38.1873 38.566H40.75C40.7725 38.566 40.7911 38.5845 40.7911 38.6069V40.5049Z" fill="#014087"/>
</g>
<defs>
<clipPath id="clip0_4891_899">
<rect width="50" height="50" fill="white"/>
</clipPath>
</defs>
</svg>
