<svg width="31" height="31" viewBox="0 0 31 31" fill="none" xmlns="http://www.w3.org/2000/svg">
<g clip-path="url(#clip0_4891_1783)">
<path d="M15.5 29.5752C23.2735 29.5752 29.5752 23.2735 29.5752 15.5C29.5752 7.72648 23.2735 1.4248 15.5 1.4248C7.72648 1.4248 1.4248 7.72648 1.4248 15.5C1.4248 23.2735 7.72648 29.5752 15.5 29.5752Z" fill="#3C9BEF"/>
<path d="M15.5 1.4248C15.2485 1.4248 14.9993 1.4316 14.7512 1.44463C22.1762 1.83432 28.0771 7.97756 28.0771 15.5C28.0771 23.0224 22.1762 29.1663 14.7512 29.5554C14.9993 29.5684 15.2491 29.5752 15.5 29.5752C23.2734 29.5752 29.5752 23.2734 29.5752 15.5C29.5752 7.72664 23.2734 1.4248 15.5 1.4248Z" fill="#3C9BEF"/>
<path d="M15.5 26.4678C21.5574 26.4678 26.4679 21.5573 26.4679 15.4999C26.4679 9.44253 21.5574 4.53204 15.5 4.53204C9.4426 4.53204 4.5321 9.44253 4.5321 15.4999C4.5321 21.5573 9.4426 26.4678 15.5 26.4678Z" fill="#F9FAFC"/>
<path d="M15.5 4.53204C15.1964 4.53204 14.8956 4.54507 14.5983 4.56943C20.234 5.02822 24.6644 9.74638 24.6644 15.5005C24.6644 21.2546 20.234 25.9728 14.5983 26.4316C14.8956 26.4559 15.1964 26.469 15.5 26.469C21.5577 26.469 26.4679 21.5582 26.4679 15.5011C26.4679 9.44392 21.5577 4.53204 15.5 4.53204Z" fill="#C2F4FF"/>
<path d="M15.5 7.9077C15.7345 7.9077 15.9248 7.71739 15.9248 7.4829V6.85928C15.9248 6.62479 15.7345 6.43448 15.5 6.43448C15.2655 6.43448 15.0752 6.62479 15.0752 6.85928V7.4829C15.0752 7.71739 15.2655 7.9077 15.5 7.9077Z" fill="#003E83"/>
<path d="M21.8873 9.09966C21.7213 8.9337 21.4523 8.9337 21.2863 9.09966L20.8457 9.54032C20.6797 9.70628 20.6797 9.97532 20.8457 10.1413C20.9284 10.224 21.0371 10.2659 21.1459 10.2659C21.2546 10.2659 21.3634 10.2245 21.446 10.1413L21.8867 9.70062C22.0532 9.53409 22.0532 9.26561 21.8873 9.09966Z" fill="#003E83"/>
<path d="M23.4711 15.0752C23.2366 15.0752 23.0463 15.2655 23.0463 15.5C23.0463 15.7345 23.2366 15.9248 23.4711 15.9248H24.0947C24.3292 15.9248 24.5195 15.7345 24.5195 15.5C24.5195 15.2655 24.3292 15.0752 24.0947 15.0752H23.4711Z" fill="#003E83"/>
<path d="M21.4134 20.8454C21.2475 20.6795 20.9784 20.6795 20.8125 20.8454C20.6465 21.0114 20.6465 21.2804 20.8125 21.4464L21.2531 21.8871C21.3358 21.9698 21.4451 22.0117 21.5533 22.0117C21.6615 22.0117 21.7708 21.9703 21.8535 21.8871C22.0195 21.7211 22.0195 21.4521 21.8535 21.2861L21.4134 20.8454Z" fill="#003E83"/>
<path d="M15.0287 23.4709V24.0945C15.0287 24.329 15.219 24.5193 15.4535 24.5193C15.688 24.5193 15.8783 24.329 15.8783 24.0945V23.4709C15.8783 23.2364 15.688 23.0461 15.4535 23.0461C15.219 23.0461 15.0287 23.2364 15.0287 23.4709Z" fill="#003E83"/>
<path d="M9.50739 20.8127L9.06673 21.2534C8.90077 21.4193 8.90077 21.6884 9.06673 21.8543C9.14942 21.937 9.25817 21.9789 9.36692 21.9789C9.47567 21.9789 9.58442 21.9376 9.66712 21.8543L10.1078 21.4137C10.2737 21.2477 10.2737 20.9787 10.1078 20.8127C9.94239 20.6467 9.67335 20.6467 9.50739 20.8127Z" fill="#003E83"/>
<path d="M6.8595 15.0287C6.625 15.0287 6.43469 15.219 6.43469 15.4535C6.43469 15.688 6.625 15.8783 6.8595 15.8783H7.48311C7.7176 15.8783 7.90792 15.688 7.90792 15.4535C7.90792 15.219 7.7176 15.0287 7.48311 15.0287H6.8595Z" fill="#003E83"/>
<path d="M10.1409 9.50758L9.70028 9.06691C9.53432 8.90095 9.26528 8.90095 9.09932 9.06691C8.93336 9.23287 8.93336 9.50191 9.09932 9.66787L9.53999 10.1085C9.62268 10.1912 9.73143 10.2331 9.84018 10.2331C9.94893 10.2331 10.0577 10.1918 10.1404 10.1085C10.3069 9.94258 10.3063 9.67353 10.1409 9.50758Z" fill="#003E83"/>
<path d="M16.6384 16.563L19.6642 18.119C19.8743 18.2271 20.1298 18.1427 20.2363 17.9354C20.3433 17.727 20.2612 17.471 20.0527 17.3634L17.0281 15.808C17.048 15.7083 17.0587 15.6052 17.0587 15.4999C17.0587 14.7879 16.5784 14.1858 15.9248 14.0006V9.67044C15.9248 9.43595 15.7345 9.24564 15.5 9.24564C15.2655 9.24564 15.0752 9.43595 15.0752 9.67044V14.0006C14.5569 14.1479 14.148 14.5568 14.0007 15.0751H11.892C11.6575 15.0751 11.4672 15.2654 11.4672 15.4999C11.4672 15.7344 11.6575 15.9247 11.892 15.9247H14.0007C14.1859 16.5783 14.788 17.0586 15.5 17.0586C15.9491 17.0586 16.3535 16.8678 16.6384 16.563ZM15.5 16.209C15.1092 16.209 14.7908 15.8913 14.7908 15.4999C14.7908 15.1091 15.1086 14.7908 15.5 14.7908C15.8908 14.7908 16.2091 15.1091 16.2091 15.4999C16.2091 15.8907 15.8908 16.209 15.5 16.209Z" fill="#003E83" stroke="#003E83" stroke-width="0.2"/>
<path d="M26.4679 15.0746C26.7018 15.0564 26.8768 14.8525 26.8593 14.6186C26.6406 11.7645 25.3623 9.11484 23.2592 7.1579C21.1448 5.19021 18.3892 4.10724 15.5 4.10724C9.21798 4.10724 4.1073 9.21792 4.1073 15.4999C4.1073 21.7819 9.21798 26.8926 15.5 26.8926C21.4416 26.8926 26.4044 22.3155 26.8593 16.3813C26.8774 16.1473 26.7024 15.9434 26.4679 15.9253C26.2351 15.9077 26.0301 16.0822 26.0119 16.3167C25.5922 21.7961 21.0094 26.043 15.5 26.043C9.6864 26.043 4.95691 21.3135 4.95691 15.4999C4.95691 9.68634 9.6864 4.95685 15.5 4.95685C18.174 4.95685 20.724 5.95939 22.6803 7.77982C24.6265 9.59062 25.8097 12.0426 26.0119 14.6832C26.0301 14.9171 26.2334 15.0927 26.4679 15.0746Z" fill="#003E83" stroke="#003E83" stroke-width="0.5"/>
<path d="M25.7533 5.24691C23.0147 2.50834 19.3732 1 15.5002 1C12.7168 1 10.0128 1.7907 7.68036 3.28715C7.48268 3.41402 7.42548 3.67684 7.55235 3.87395C7.67923 4.07162 7.94204 4.12883 8.13915 4.00195C10.334 2.59387 12.8794 1.84961 15.5002 1.84961C19.1461 1.84961 22.574 3.26959 25.1523 5.84787C27.7306 8.42615 29.1506 11.854 29.1506 15.5C29.1506 23.044 23.0453 29.1504 15.5002 29.1504C14.1521 29.1504 12.8182 28.9533 11.537 28.5653C11.3127 28.4973 11.0754 28.6242 11.0074 28.8485C10.9395 29.0728 11.0663 29.3101 11.2906 29.3781C12.6523 29.791 14.0683 30 15.5002 30C23.5137 30 30.0002 23.5146 30.0002 15.5C30.0002 11.6269 28.4918 7.98549 25.7533 5.24691Z" fill="#003E83" stroke="#003E83" stroke-width="0.5"/>
<path d="M9.99227 27.9928C5.04584 25.8088 1.84961 20.9048 1.84961 15.5002C1.84961 11.4158 3.65701 7.57955 6.8085 4.97408C6.98918 4.82455 7.01467 4.55664 6.86514 4.37595C6.71561 4.19527 6.44826 4.16978 6.26701 4.31931C2.91955 7.08621 1 11.1615 1 15.5002C1 21.2413 4.39504 26.4499 9.64902 28.7699C9.70453 28.7943 9.76287 28.8062 9.82064 28.8062C9.98377 28.8062 10.1395 28.7116 10.2092 28.553C10.3038 28.3383 10.2069 28.0874 9.99227 27.9928Z" fill="#003E83" stroke="#003E83" stroke-width="0.5"/>
</g>
<defs>
<clipPath id="clip0_4891_1783">
<rect width="50" height="50" fill="white"/>
</clipPath>
</defs>
</svg>
