<svg width="42" height="42" viewBox="0 0 42 42" fill="none" xmlns="http://www.w3.org/2000/svg">
<rect y="0.630798" width="42" height="40.7077" rx="20.3538" fill="#00C7F2"/>
<path d="M16.1 20.92C16.1998 20.9627 16.3076 20.9848 16.4167 20.9848C16.5258 20.9848 16.6336 20.9627 16.7334 20.92C16.8357 20.8815 16.9291 20.8239 17.0084 20.7503L19.5084 18.3273C19.6653 18.1752 19.7534 17.9689 19.7534 17.7538C19.7534 17.5387 19.6653 17.3324 19.5084 17.1803C19.3514 17.0283 19.1386 16.9428 18.9167 16.9428C18.6948 16.9428 18.482 17.0283 18.325 17.1803L17.25 18.2303V13.7153C17.25 13.5011 17.1622 13.2957 17.006 13.1442C16.8497 12.9927 16.6377 12.9077 16.4167 12.9077C16.1957 12.9077 15.9837 12.9927 15.8274 13.1442C15.6712 13.2957 15.5834 13.5011 15.5834 13.7153V18.2303L14.5084 17.1803C14.4307 17.105 14.3384 17.0453 14.2369 17.0045C14.1354 16.9638 14.0266 16.9428 13.9167 16.9428C13.8068 16.9428 13.698 16.9638 13.5965 17.0045C13.495 17.0453 13.4027 17.105 13.325 17.1803C13.2473 17.2557 13.1857 17.3451 13.1436 17.4435C13.1016 17.5418 13.08 17.6473 13.08 17.7538C13.08 17.8603 13.1016 17.9658 13.1436 18.0642C13.1857 18.1626 13.2473 18.252 13.325 18.3273L15.825 20.7503C15.9043 20.8239 15.9977 20.8815 16.1 20.92V20.92ZM26.4167 16.1384H22.25C22.029 16.1384 21.8171 16.2235 21.6608 16.375C21.5045 16.5265 21.4167 16.7319 21.4167 16.9461C21.4167 17.1603 21.5045 17.3658 21.6608 17.5172C21.8171 17.6687 22.029 17.7538 22.25 17.7538H26.4167C26.6377 17.7538 26.8497 17.8389 27.006 17.9904C27.1622 18.1418 27.25 18.3473 27.25 18.5615V26.4123L25.9417 25.2411C25.788 25.1017 25.5856 25.0237 25.375 25.023H18.0834C17.8624 25.023 17.6504 24.9379 17.4941 24.7865C17.3378 24.635 17.25 24.4296 17.25 24.2153V23.4077C17.25 23.1934 17.1622 22.988 17.006 22.8365C16.8497 22.6851 16.6377 22.6 16.4167 22.6C16.1957 22.6 15.9837 22.6851 15.8274 22.8365C15.6712 22.988 15.5834 23.1934 15.5834 23.4077V24.2153C15.5834 24.858 15.8468 25.4743 16.3156 25.9287C16.7844 26.3831 17.4203 26.6384 18.0834 26.6384H25.05L27.55 28.8434C27.7037 28.9829 27.9062 29.0608 28.1167 29.0615C28.231 29.0603 28.344 29.0384 28.45 28.9969C28.5991 28.9338 28.7259 28.8299 28.8147 28.6978C28.9036 28.5658 28.9506 28.4114 28.95 28.2538V18.5615C28.9501 18.2406 28.8843 17.9228 28.7566 17.6267C28.6289 17.3306 28.4417 17.062 28.2061 16.8366C27.9704 16.6112 27.6908 16.4334 27.3836 16.3135C27.0765 16.1937 26.7478 16.1341 26.4167 16.1384V16.1384Z" fill="white"/>
</svg>
