<svg width="80" height="80" viewBox="0 0 80 80" fill="none" xmlns="http://www.w3.org/2000/svg">
<g filter="url(#filter0_d_66_3332)">
<rect x="15" y="5" width="50" height="50" rx="25" fill="#00C7F2"/>
</g>
<path d="M35.1002 29.9334C35.1999 29.9775 35.3078 30.0003 35.4168 30.0003C35.5259 30.0003 35.6337 29.9775 35.7335 29.9334C35.8358 29.8938 35.9292 29.8343 36.0085 29.7584L38.5085 27.2584C38.6654 27.1015 38.7536 26.8887 38.7536 26.6667C38.7536 26.4448 38.6654 26.232 38.5085 26.0751C38.3516 25.9182 38.1387 25.83 37.9168 25.83C37.6949 25.83 37.4821 25.9182 37.3252 26.0751L36.2502 27.1584V22.5001C36.2502 22.2791 36.1624 22.0671 36.0061 21.9108C35.8498 21.7545 35.6378 21.6667 35.4168 21.6667C35.1958 21.6667 34.9838 21.7545 34.8276 21.9108C34.6713 22.0671 34.5835 22.2791 34.5835 22.5001V27.1584L33.5085 26.0751C33.4308 25.9974 33.3385 25.9357 33.237 25.8937C33.1355 25.8516 33.0267 25.83 32.9168 25.83C32.8069 25.83 32.6981 25.8516 32.5966 25.8937C32.4951 25.9357 32.4029 25.9974 32.3252 26.0751C32.2475 26.1528 32.1858 26.245 32.1438 26.3465C32.1017 26.4481 32.0801 26.5569 32.0801 26.6667C32.0801 26.7766 32.1017 26.8854 32.1438 26.987C32.1858 27.0885 32.2475 27.1807 32.3252 27.2584L34.8252 29.7584C34.9044 29.8343 34.9979 29.8938 35.1002 29.9334ZM45.4168 25.0001H41.2502C41.0291 25.0001 40.8172 25.0879 40.6609 25.2442C40.5046 25.4004 40.4168 25.6124 40.4168 25.8334C40.4168 26.0544 40.5046 26.2664 40.6609 26.4227C40.8172 26.579 41.0291 26.6667 41.2502 26.6667H45.4168C45.6378 26.6667 45.8498 26.7545 46.0061 26.9108C46.1624 27.0671 46.2502 27.2791 46.2502 27.5001V35.6001L44.9418 34.3917C44.7881 34.2479 44.5857 34.1675 44.3752 34.1667H37.0835C36.8625 34.1667 36.6505 34.079 36.4942 33.9227C36.338 33.7664 36.2502 33.5544 36.2502 33.3334V32.5001C36.2502 32.2791 36.1624 32.0671 36.0061 31.9108C35.8498 31.7545 35.6378 31.6667 35.4168 31.6667C35.1958 31.6667 34.9838 31.7545 34.8276 31.9108C34.6713 32.0671 34.5835 32.2791 34.5835 32.5001V33.3334C34.5835 33.9965 34.8469 34.6323 35.3157 35.1012C35.7846 35.57 36.4204 35.8334 37.0835 35.8334H44.0502L46.5502 38.1084C46.7038 38.2523 46.9063 38.3327 47.1168 38.3334C47.2311 38.3322 47.3442 38.3096 47.4502 38.2667C47.5992 38.2017 47.726 38.0944 47.8148 37.9582C47.9037 37.822 47.9507 37.6627 47.9502 37.5001V27.5001C47.9502 27.169 47.8844 26.8411 47.7567 26.5356C47.629 26.2301 47.4419 25.953 47.2062 25.7204C46.9705 25.4878 46.6909 25.3044 46.3838 25.1807C46.0766 25.0571 45.7479 24.9957 45.4168 25.0001Z" fill="white"/>
<defs>
<filter id="filter0_d_66_3332" x="0" y="0" width="80" height="80" filterUnits="userSpaceOnUse" color-interpolation-filters="sRGB">
<feFlood flood-opacity="0" result="BackgroundImageFix"/>
<feColorMatrix in="SourceAlpha" type="matrix" values="0 0 0 0 0 0 0 0 0 0 0 0 0 0 0 0 0 0 127 0" result="hardAlpha"/>
<feOffset dy="10"/>
<feGaussianBlur stdDeviation="7.5"/>
<feColorMatrix type="matrix" values="0 0 0 0 0.101961 0 0 0 0 0.811765 0 0 0 0 0.952941 0 0 0 0.2 0"/>
<feBlend mode="normal" in2="BackgroundImageFix" result="effect1_dropShadow_66_3332"/>
<feBlend mode="normal" in="SourceGraphic" in2="effect1_dropShadow_66_3332" result="shape"/>
</filter>
</defs>
</svg>
